<?xml version="1.0" standalone="no"?><!DOCTYPE svg PUBLIC "-//W3C//DTD SVG 1.1//EN" "http://www.w3.org/Graphics/SVG/1.1/DTD/svg11.dtd"><svg width="100%" height="100%" viewBox="0 0 800 400" version="1.1" xmlns="http://www.w3.org/2000/svg" xmlns:xlink="http://www.w3.org/1999/xlink" xml:space="preserve" style="fill-rule:evenodd;clip-rule:evenodd;stroke-linejoin:round;stroke-miterlimit:1.41421;"><g id="objects"><path d="M565.386,362.036l230.456,0c2.29803,0 4.15896,-1.86256 4.15896,-4.15733c0,-2.2964 -1.86093,-4.15733 -4.15896,-4.15733l-230.456,0c-2.2964,0 -4.15733,1.86093 -4.15733,4.15733c0,2.29477 1.86093,4.15733 4.15733,4.15733" style="fill:#000;fill-rule:nonzero;"/><path d="M518.291,362.036l23.419,0c2.2964,0 4.15733,-1.86256 4.15733,-4.15733c0,-2.2964 -1.86093,-4.15733 -4.15733,-4.15733l-23.419,0c-2.2964,0 -4.15733,1.86093 -4.15733,4.15733c0,2.29477 1.86093,4.15733 4.15733,4.15733" style="fill:#000;fill-rule:nonzero;"/><path d="M390.197,362.036l99.533,0c2.2964,0 4.15733,-1.86256 4.15733,-4.15733c0,-2.2964 -1.86093,-4.15733 -4.15733,-4.15733l-99.533,0c-2.2964,0 -4.15733,1.86093 -4.15733,4.15733c0,2.29477 1.86093,4.15733 4.15733,4.15733" style="fill:#000;fill-rule:nonzero;"/><path d="M4.15733,362.036l362.427,0c2.2964,0 4.15733,-1.86256 4.15733,-4.15733c0,-2.2964 -1.86093,-4.15733 -4.15733,-4.15733l-362.427,0c-2.2964,0 -4.15733,1.86093 -4.15733,4.15733c0,2.29477 1.86093,4.15733 4.15733,4.15733" style="fill:#000;fill-rule:nonzero;"/><path d="M581.584,297.596c5.01848,0 9.3911,-3.29944 10.7791,-8.07491c-0.362074,-4.90921 -2.16592,-40.8916 20.2044,-65.4034c13.4114,-14.6966 32.7531,-22.1485 57.4916,-22.1485c56.9093,0 80.2859,44.0181 80.5159,44.4634c0.143525,0.198978 0.38817,0.600196 0.634446,1.03077c2.12515,3.52452 5.41155,5.49473 9.22311,5.49473c3.73817,0 7.42579,-1.88377 9.62596,-4.92062c1.48092,-2.0436 2.9178,-5.47678 1.36349,-10.2245c-30.7812,-93.9697 -157.274,-104.114 -210.23,-104.114c-2.63401,0 -4.97934,0.0244645 -7.00337,0.0570838l-0.0048929,0c-5.81113,0 -11.0155,-2.67968 -14.1486,-7.16973c-0.598565,-0.851364 -61.7565,-85.8492 -172.571,-85.8492c-87.1001,0 -128.737,18.0646 -129.146,18.2489c-56.4885,21.7848 -104.369,55.1805 -142.439,99.3095c-40.5719,46.9669 -60.0081,94.7445 -67.9836,119.043c-0.973687,2.96999 -0.678482,6.11286 0.828531,8.84636c1.50701,2.7335 4.07742,4.73143 7.05393,5.48168c0.954115,0.262586 1.89029,0.386539 2.84277,0.386539l42.9075,0c5.79645,0 10.6062,-4.31391 11.1852,-10.0337c2.49375,-24.4857 15.7127,-81.4341 84.4139,-81.4341c68.9703,0 80.9285,60.5676 82.8678,86.6059c0.419158,5.83886 5.3773,10.4056 11.2879,10.4056l310.301,0Z" style="fill:#65a8e2;fill-rule:nonzero;"/><path d="M367.465,37.9638c113.642,0 174.843,87.0332 174.843,87.0332c2.65684,3.80504 7.01479,5.98891 11.6614,5.98891c0.0587148,0 0.11743,0 0.174513,-0.00163097c2.03871,-0.0326193 4.40361,-0.0570838 7.05719,-0.0570838c46.2705,0 180.559,7.43231 212.856,106.023c3.48537,10.6421 -4.99402,18.7789 -13.6235,18.7789c-4.33837,0 -8.71588,-2.05828 -11.6288,-6.8892c-0.22018,-0.38817 -0.441992,-0.746983 -0.69153,-1.13678c0,0 -22.1746,-42.9613 -78.0531,-42.9613c-82.6818,0 -74.894,85.0369 -74.894,85.0369c-1.55268,6.20909 -7.17788,10.5882 -13.5811,10.5882l-310.301,0c-7.34424,0 -13.5256,-5.6252 -14.0524,-12.9711c-1.96695,-26.4151 -13.8583,-84.0404 -80.1033,-84.0404c-65.9693,0 -79.1068,53.9116 -81.6576,78.9404c-0.719256,7.12243 -6.76199,12.5275 -13.9415,12.5275l-42.9075,0c-1.21833,0 -2.41057,-0.164728 -3.51963,-0.469718c-7.59541,-1.91312 -12.4182,-10.006 -9.83962,-17.8787c8.28694,-25.2506 27.8846,-72.9531 68.5185,-119.99c32.5671,-37.752 78.7186,-75.0881 143.411,-100.034c0,0 41.5766,-18.487 130.273,-18.487M367.465,43.5075c-68.9507,0 -113.897,11.7821 -128.021,18.0091l-0.127215,0.0570838l-0.130477,0.05056c-55.9291,21.5663 -103.438,54.6993 -141.211,98.4843c-40.2522,46.5951 -59.5352,93.9909 -67.4453,118.092c-0.730673,2.23279 -0.510492,4.5928 0.621398,6.64619c1.13678,2.06317 3.07111,3.56855 5.4197,4.16059c0.657279,0.181037 1.34718,0.272371 2.05012,0.272371l42.9075,0c4.36936,0 7.99173,-3.24236 8.4272,-7.54648c7.7161,-75.7437 63.5327,-83.9214 87.1719,-83.9214c23.7485,0 79.6352,8.68816 85.6322,89.1878c0.314776,4.3873 4.05947,7.82374 8.52343,7.82374l310.301,0c3.62564,0 6.80276,-2.28335 7.97869,-5.63988c-0.425682,-6.82559 -1.45319,-42.379 20.9579,-66.9365c13.9578,-15.2936 33.9893,-23.0488 59.5384,-23.0488c56.9729,0 80.6969,41.6973 82.8482,45.7144c0.249538,0.394694 0.471349,0.76003 0.645863,1.06665c2.09579,3.47722 4.89779,4.20789 6.87942,4.20789c2.82157,0 5.7198,-1.48418 7.38175,-3.77732c1.10253,-1.52006 2.16429,-4.09536 0.973687,-7.73404c-30.2169,-92.2458 -155.239,-102.204 -207.588,-102.204c-2.62096,0 -4.95324,0.0244645 -6.99521,0.0570838l-0.234859,0.00163097c-6.49777,0 -12.5568,-3.12493 -16.1971,-8.34402c-0.595303,-0.846471 -60.8122,-84.6781 -170.309,-84.6781" style="fill:#000;fill-rule:nonzero;"/><path d="M587.37,274.693c0,45.9411 37.2431,83.1858 83.1858,83.1858c45.9411,0 83.1842,-37.2447 83.1842,-83.1858c0,-45.9427 -37.2431,-83.1858 -83.1842,-83.1858c-45.9427,0 -83.1858,37.2431 -83.1858,83.1858" style="fill:#151515;fill-rule:nonzero;"/><path d="M616.551,274.693c0,29.8255 24.1791,54.0046 54.0046,54.0046c29.8255,0 54.0029,-24.1791 54.0029,-54.0046c0,-29.8255 -24.1774,-54.0046 -54.0029,-54.0046c-29.8255,0 -54.0046,24.1791 -54.0046,54.0046" style="fill:#fff;fill-rule:nonzero;"/><path d="M630.761,274.693c0,21.9773 17.8167,39.7939 39.7939,39.7939c21.9773,0 39.7939,-17.8167 39.7939,-39.7939c0,-21.9773 -17.8167,-39.7939 -39.7939,-39.7939c-21.9773,0 -39.7939,17.8167 -39.7939,39.7939" style="fill:#fff;fill-rule:nonzero;"/><path d="M670.555,238.564c19.9206,0 36.1275,16.2085 36.1275,36.1292c0,19.9206 -16.2069,36.1292 -36.1275,36.1292c-19.9223,0 -36.1292,-16.2085 -36.1292,-36.1292c0,-19.9206 16.2069,-36.1292 36.1292,-36.1292M670.555,318.152c23.9622,0 43.4587,-19.4949 43.4587,-43.4587c0,-23.9638 -19.4966,-43.4587 -43.4587,-43.4587c-23.9638,0 -43.4587,19.4949 -43.4587,43.4587c0,23.9638 19.4949,43.4587 43.4587,43.4587" style="fill:#000;fill-rule:nonzero;"/><path d="M664.48,274.693c0,3.3549 2.72045,6.07535 6.07535,6.07535c3.3549,0 6.07535,-2.72045 6.07535,-6.07535c0,-3.3549 -2.72045,-6.07535 -6.07535,-6.07535c-3.3549,0 -6.07535,2.72045 -6.07535,6.07535" style="fill:#fff;fill-rule:nonzero;"/><path d="M670.555,270.45c2.34044,0 4.24377,1.90334 4.24377,4.24377c0,2.33881 -1.90334,4.24214 -4.24377,4.24214c-2.34044,0 -4.24377,-1.90334 -4.24377,-4.24214c0,-2.34044 1.90334,-4.24377 4.24377,-4.24377M670.555,282.601c4.35957,0 7.90855,-3.54572 7.90855,-7.90692c0,-4.3612 -3.54898,-7.90855 -7.90855,-7.90855c-4.35957,0 -7.90855,3.54735 -7.90855,7.90855c0,4.3612 3.54898,7.90692 7.90855,7.90692" style="fill:#000;fill-rule:nonzero;"/><path d="M96.5503,274.693c0,45.9411 37.2431,83.1858 83.1858,83.1858c45.9411,0 83.1842,-37.2447 83.1842,-83.1858c0,-45.9427 -37.2431,-83.1858 -83.1842,-83.1858c-45.9427,0 -83.1858,37.2431 -83.1858,83.1858" style="fill:#151515;fill-rule:nonzero;"/><path d="M125.731,274.693c0,29.8255 24.1791,54.0046 54.0046,54.0046c29.8255,0 54.0029,-24.1791 54.0029,-54.0046c0,-29.8255 -24.1774,-54.0046 -54.0029,-54.0046c-29.8255,0 -54.0046,24.1791 -54.0046,54.0046" style="fill:#fff;fill-rule:nonzero;"/><path d="M139.942,274.693c0,21.9773 17.8167,39.7939 39.7939,39.7939c21.9773,0 39.7939,-17.8167 39.7939,-39.7939c0,-21.9773 -17.8167,-39.7939 -39.7939,-39.7939c-21.9773,0 -39.7939,17.8167 -39.7939,39.7939" style="fill:#fff;fill-rule:nonzero;"/><path d="M179.736,238.564c19.9206,0 36.1275,16.2085 36.1275,36.1292c0,19.9206 -16.2069,36.1292 -36.1275,36.1292c-19.9223,0 -36.1292,-16.2085 -36.1292,-36.1292c0,-19.9206 16.2069,-36.1292 36.1292,-36.1292M179.736,318.152c23.9622,0 43.4587,-19.4949 43.4587,-43.4587c0,-23.9638 -19.4966,-43.4587 -43.4587,-43.4587c-23.9638,0 -43.4587,19.4949 -43.4587,43.4587c0,23.9638 19.4949,43.4587 43.4587,43.4587" style="fill:#000;fill-rule:nonzero;"/><path d="M173.66,274.693c0,3.3549 2.72045,6.07535 6.07535,6.07535c3.3549,0 6.07535,-2.72045 6.07535,-6.07535c0,-3.3549 -2.72045,-6.07535 -6.07535,-6.07535c-3.3549,0 -6.07535,2.72045 -6.07535,6.07535" style="fill:#fff;fill-rule:nonzero;"/><path d="M179.736,270.45c2.34044,0 4.24377,1.90334 4.24377,4.24377c0,2.33881 -1.90334,4.24214 -4.24377,4.24214c-2.34044,0 -4.24377,-1.90334 -4.24377,-4.24214c0,-2.34044 1.90334,-4.24377 4.24377,-4.24377M179.736,282.601c4.35957,0 7.90855,-3.54572 7.90855,-7.90692c0,-4.3612 -3.54898,-7.90855 -7.90855,-7.90855c-4.35957,0 -7.90855,3.54735 -7.90855,7.90855c0,4.3612 3.54898,7.90692 7.90855,7.90692" style="fill:#000;fill-rule:nonzero;"/><path d="M499.3,133.041c6.56464,9.53137 -0.396325,22.5269 -11.9697,22.5269l-104.566,0c-8.93606,0 -16.1808,-7.24312 -16.1808,-16.1792l0,-31.9898c0,-10.5197 8.52669,-19.0464 19.0464,-19.0464l48.7153,0c7.35566,0 14.5433,2.05176 20.7948,5.92693c12.2045,7.56931 32.4415,21.744 44.16,38.7615" style="fill:#c9f9ff;fill-rule:nonzero;"/><path d="M434.345,91.1252c6.83212,0 13.5174,1.90497 19.3335,5.50777c11.1998,6.94628 31.7256,21.1161 43.338,37.9803c2.46602,3.57834 2.72208,8.02762 0.686637,11.9012c-2.06807,3.93389 -5.94487,6.28248 -10.3729,6.28248l-104.566,0c-7.39317,0 -13.4082,-6.015 -13.4082,-13.4098l0,-31.9881c0,-8.97358 7.3002,-16.2738 16.2738,-16.2738l48.7153,0ZM382.764,158.341l104.566,0c6.42764,0 12.2828,-3.54246 15.2789,-9.24595c3.01239,-5.73122 2.62912,-12.3187 -1.02588,-17.6275c-12.1866,-17.6944 -33.4136,-32.3698 -44.9837,-39.5428c-6.69512,-4.15081 -14.39,-6.34283 -22.2545,-6.34283l-48.7153,0c-12.0316,0 -21.8174,9.78743 -21.8174,21.8174l0,31.9881c0,10.4512 8.50223,18.9535 18.9518,18.9535" style="fill:#000;fill-rule:nonzero;"/><g><clipPath id="tag1"><rect x="404.506" y="102.135" width="57.821" height="33.9013"/></clipPath><g clip-path="url(#tag1)"><g opacity="0.5"><clipPath id="tag2"><rect x="404.506" y="102.135" width="57.821" height="33.9013"/></clipPath><g clip-path="url(#tag2)"><path d="M460.939,136.037c0.482766,0 0.952484,-0.251169 1.20691,-0.704577c0.378384,-0.665434 0.141894,-1.51027 -0.52354,-1.88866l-55.05,-31.1286c-0.665434,-0.375122 -1.51354,-0.143525 -1.88703,0.525171c-0.378384,0.667065 -0.141894,1.51027 0.52354,1.89029l55.05,31.127c0.215288,0.122322 0.448516,0.179406 0.680113,0.179406" style="fill:#2f90aa;fill-rule:nonzero;"/></g></g></g></g><g><clipPath id="tag3"><rect x="384.852" y="102.135" width="57.8194" height="33.9013"/></clipPath><g clip-path="url(#tag3)"><g opacity="0.5"><clipPath id="tag4"><rect x="384.852" y="102.135" width="57.8194" height="33.9013"/></clipPath><g clip-path="url(#tag4)"><path d="M441.285,136.037c0.482766,0 0.952484,-0.251169 1.20691,-0.704577c0.378384,-0.665434 0.141894,-1.51027 -0.52354,-1.88866l-55.0484,-31.1286c-0.665434,-0.375122 -1.51354,-0.143525 -1.88866,0.525171c-0.376753,0.667065 -0.141894,1.51027 0.525171,1.89029l55.0484,31.127c0.215288,0.122322 0.448516,0.179406 0.680113,0.179406" style="fill:#2f90aa;fill-rule:nonzero;"/></g></g></g></g><path d="M341.975,106.571l0,30.7796c0,10.8997 -8.83494,19.7347 -19.7347,19.7347l-98.3554,0c-15.0163,0 -24.7662,-16.2281 -17.2997,-29.2579c5.0984,-8.89529 15.3621,-18.2489 35.0772,-25.5964c33.0923,-12.3301 62.0387,-15.1533 80.2207,-15.3931c11.0416,-0.146787 20.0919,8.68979 20.0919,19.7331" style="fill:#c9f9ff;fill-rule:nonzero;"/><path d="M321.923,89.6095c9.63412,0 17.2801,7.60846 17.2801,16.9604l0,30.7829c0,9.35196 -7.60846,16.9604 -16.962,16.9604l-98.3554,0c-6.16179,0 -11.694,-3.19996 -14.7994,-8.55605c-3.01566,-5.20604 -3.05154,-11.3939 -0.094596,-16.5527c5.72469,-9.9913 17.042,-18.1918 33.6387,-24.3748c32.59,-12.1425 61.1058,-14.9788 79.2894,-15.2202l0.00326193,0ZM223.886,159.857l98.3554,0c12.41,0 22.5057,-10.0973 22.5057,-22.5041l0,-30.7829c0,-12.41 -10.1348,-22.5073 -22.5938,-22.5073l-0.304991,0.00326193c-18.624,0.246276 -47.8199,3.14776 -81.152,15.5676c-17.8428,6.64945 -30.1288,15.672 -36.5157,26.8163c-3.9502,6.89409 -3.90943,15.15 0.110906,22.0865c4.10677,7.08981 11.4331,11.3205 19.5944,11.3205" style="fill:#000;fill-rule:nonzero;"/><g><clipPath id="tag5"><rect x="283.54" y="108.848" width="34.0758" height="20.4751"/></clipPath><g clip-path="url(#tag5)"><g opacity="0.5"><clipPath id="tag6"><rect x="283.54" y="108.848" width="34.0758" height="20.4751"/></clipPath><g clip-path="url(#tag6)"><path d="M316.229,129.324c0.482766,0 0.952484,-0.251169 1.20691,-0.704577c0.378384,-0.665434 0.141894,-1.51027 -0.52354,-1.88866l-31.3048,-17.7025c-0.663803,-0.376753 -1.51191,-0.143525 -1.88703,0.525171c-0.378384,0.665434 -0.141894,1.51027 0.52354,1.88866l31.3048,17.7041c0.215288,0.120691 0.448516,0.177775 0.680113,0.177775" style="fill:#2f90aa;fill-rule:nonzero;"/></g></g></g></g><g><clipPath id="tag7"><rect x="266.501" y="108.848" width="34.0774" height="20.4751"/></clipPath><g clip-path="url(#tag7)"><g opacity="0.5"><clipPath id="tag8"><rect x="266.501" y="108.848" width="34.0774" height="20.4751"/></clipPath><g clip-path="url(#tag8)"><path d="M299.191,129.324c0.482766,0 0.952484,-0.251169 1.20691,-0.704577c0.378384,-0.665434 0.141894,-1.51027 -0.52354,-1.88866l-31.3048,-17.7025c-0.665434,-0.376753 -1.51027,-0.143525 -1.88703,0.525171c-0.378384,0.665434 -0.141894,1.51027 0.52354,1.88866l31.3048,17.7041c0.215288,0.120691 0.448516,0.177775 0.680113,0.177775" style="fill:#2f90aa;fill-rule:nonzero;"/></g></g></g></g><path d="M356.326,163.47l183.21,0l0,-13.5435c-5.14896,-7.01315 -49.9565,-65.7915 -115.419,-81.0835c-21.7604,-5.08372 -45.3376,-7.0523 -67.7911,-7.3051l0,101.932ZM300.017,271.921l50.7655,0l0,-102.907l-118.615,0c43.2516,16.4075 69.6912,58.6398 67.8498,102.907M539.536,169.014l-183.21,0l0,102.907l183.21,0l0,-102.907ZM550.113,271.921c-0.908448,-5.55996 -1.401,-11.2569 -1.401,-17.0664c0,-35.3023 17.3877,-66.6054 44.041,-85.841l-47.6731,0l0,102.907l5.03316,0ZM94.2971,183.717c38.6588,-53.9605 91.5184,-86.65 129.055,-104.573c22.646,-10.8133 47.0762,-17.621 72.6106,-20.2354c15.7405,-1.61139 34.7167,-2.92106 54.82,-2.939l0,-17.8411l5.54365,0l0,17.8672c22.8303,0.254431 46.8446,2.26215 69.0518,7.45025c58.0314,13.555 100.164,60.119 114.158,77.4399l0,-11.3108l5.54365,0l0,33.8947l56.1379,0l0,0.0260955c15.6687,-9.17908 33.8801,-14.4667 53.3195,-14.4667c57.6253,0 104.607,46.3162 105.744,103.663l-5.46047,0c-1.13678,-54.3536 -45.7062,-98.2037 -100.283,-98.2037c-55.3517,0 -100.366,45.0424 -100.366,100.366c0,5.81929 0.520278,11.5179 1.47602,17.0664l0.502338,0l0,2.63727c1.82179,9.10079 4.84723,17.7726 8.97031,25.8084l-6.09818,0c-3.45112,-7.22192 -6.09003,-14.9005 -7.84332,-22.902l-6.09818,0l0,20.4279l-5.54365,0l0,-20.4279l-183.21,0l0,16.887l-5.54365,0l0,-16.887l-51.1438,0c-0.719256,7.56768 -2.24421,15.1647 -4.69229,22.6737l-5.13754,-1.78917c16.7353,-51.5059 -10.8312,-107.357 -62.1741,-125.232c-5.2827,-1.83973 -10.6176,-3.18365 -15.9574,-4.10351l-1.11232,0l0,-0.177775c-46.9343,-7.53506 -94.0692,19.4264 -110.224,65.8258c-5.36588,15.411 -6.72937,31.2509 -4.60748,46.4026l-5.73774,-1.99793c-1.68479,-15.1452 -0.120691,-30.8856 5.20768,-46.1922c17.0403,-48.9437 66.7457,-77.3681 116.247,-69.4041l139.332,0l0,-101.955c-19.8766,0.0212026 -38.6686,1.3113 -54.2541,2.90964c-24.9,2.55083 -48.717,9.18397 -70.7888,19.7216c-36.9479,17.6405 -88.9643,49.7983 -126.936,102.797c-59.8793,83.5821 -47.2817,100.732 -47.2654,100.773l-3.80504,4.03012c-1.88213,-1.77612 -16.569,-19.9092 46.5641,-108.029" style="fill:#000;fill-rule:nonzero;"/><path d="M51.2896,291.581c7.31815,0 13.4131,-5.4409 14.178,-12.6547c5.0511,-47.647 32.6829,-80.6676 48.7023,-96.1079c6.43905,-6.19767 5.22888,-15.1664 0.339241,-20.2566c-1.78917,-1.89518 -4.93367,-4.16386 -9.82983,-4.30249l-0.833424,-0.0130477c-2.74492,0 -5.06089,0.355551 -6.5206,0.649125c-0.696423,0.158204 -1.44177,0.262586 -2.23605,0.318038c-40.0304,46.6668 -59.2709,93.9844 -67.1925,118.124c-0.973687,2.96999 -0.678482,6.11123 0.8269,8.84636c1.45482,2.63564 3.89801,4.58791 6.74241,5.39687l15.8236,0Z" style="fill:#65a8e2;fill-rule:nonzero;"/><path d="M103.855,155.475c0.296836,0 0.598565,0.00326193 0.901924,0.0114168c4.85049,0.138632 8.89692,2.13493 11.7511,5.15548c6.07046,6.31999 6.9577,17.0746 -0.414265,24.1709c-16.1319,15.5496 -42.9352,47.8689 -47.8689,94.4068c-0.914972,8.61966 -8.26084,15.1337 -16.936,15.1337l-16.1873,0c-7.59378,-1.91312 -12.4165,-10.006 -9.83962,-17.8787c8.28694,-25.2506 27.8846,-72.9531 68.5185,-119.99c0.998151,0 1.9963,-0.0831793 2.99282,-0.304991c1.85115,-0.375122 4.33348,-0.704577 7.08166,-0.704577M103.855,161.018c-2.51658,0 -4.64173,0.322931 -5.878,0.572469c-0.492552,0.109275 -0.991627,0.198978 -1.50212,0.265847c-39.2329,46.0291 -58.1342,92.5443 -65.9449,116.343c-0.730673,2.23279 -0.510492,4.5928 0.623029,6.64619c1.03729,1.88377 2.73839,3.30271 4.72654,3.96325l15.4094,0c5.89594,0 10.8068,-4.37425 11.4233,-10.1756c5.14407,-48.5196 33.2424,-82.1094 49.5373,-97.8156c5.1881,-4.99402 4.20789,-12.2274 0.229966,-16.3684c-1.41568,-1.49886 -3.93226,-3.30923 -7.87104,-3.42177c-0.2528,-0.00652386 -0.5056,-0.0097858 -0.753506,-0.0097858" style="fill:#000;fill-rule:nonzero;"/><path d="M108.957,174.243c0,0 -17.3649,15.685 -24.8152,33.6762" style="fill:#5cc1e4;fill-rule:nonzero;"/><path d="M84.1435,208.958c0.407742,0 0.794281,-0.241383 0.960639,-0.64097c7.27411,-17.5737 24.3797,-33.1478 24.5509,-33.3027c0.425682,-0.383277 0.458301,-1.04219 0.0750244,-1.46624c-0.386539,-0.430575 -1.04219,-0.459932 -1.4695,-0.0766554c-0.174513,0.159835 -17.6242,16.0487 -25.0777,34.0497c-0.22018,0.530064 0.0326193,1.13841 0.562683,1.35859c0.130477,0.0538219 0.265847,0.0782864 0.397956,0.0782864" style="fill:#000;fill-rule:nonzero;"/><path d="M101.757,174.243c0,0 -17.3649,15.685 -24.8152,33.6762" style="fill:#5cc1e4;fill-rule:nonzero;"/><path d="M76.9433,208.958c0.407742,0 0.794281,-0.241383 0.960639,-0.64097c7.27085,-17.5622 24.3781,-33.1478 24.5493,-33.3027c0.427313,-0.383277 0.459932,-1.04219 0.0750244,-1.46624c-0.386539,-0.430575 -1.04219,-0.459932 -1.4695,-0.0766554c-0.174513,0.159835 -17.6226,16.0487 -25.0761,34.0497c-0.22018,0.530064 0.0326193,1.13841 0.562683,1.35859c0.130477,0.0538219 0.265847,0.0782864 0.397956,0.0782864" style="fill:#000;fill-rule:nonzero;"/><path d="M95.0684,174.243c0,0 -17.3649,15.685 -24.8152,33.6762" style="fill:#5cc1e4;fill-rule:nonzero;"/><path d="M70.2534,208.958c0.407742,0 0.794281,-0.241383 0.960639,-0.64097c7.27248,-17.5622 24.3797,-33.1478 24.5509,-33.3027c0.425682,-0.383277 0.458301,-1.04219 0.0750244,-1.46624c-0.386539,-0.430575 -1.04219,-0.459932 -1.4695,-0.0766554c-0.174513,0.159835 -17.6242,16.0487 -25.0777,34.0497c-0.22018,0.530064 0.0326193,1.13841 0.562683,1.35859c0.130477,0.0538219 0.265847,0.0782864 0.397956,0.0782864" style="fill:#000;fill-rule:nonzero;"/><path d="M755.274,264.385l30.7829,0c5.38219,0 9.7858,-4.40361 9.7858,-9.7858l0,-13.6903c0,-5.38219 -4.40361,-9.7858 -9.7858,-9.7858l-30.7829,0c-5.38219,0 -9.7858,4.40361 -9.7858,9.7858l0,13.6903c0,5.38219 4.40361,9.7858 9.7858,9.7858" style="fill:#909191;fill-rule:nonzero;"/><path d="M779.211,233.896c7.64108,0 13.8583,6.21724 13.8583,13.8583c0,7.64108 -6.21724,13.86 -13.8583,13.86l-17.0925,0c-7.64108,0 -13.8583,-6.21887 -13.8583,-13.86c0,-7.64108 6.21724,-13.8583 13.8583,-13.8583l17.0925,0ZM762.119,267.158l17.0925,0c10.6991,0 19.402,-8.7061 19.402,-19.4036c0,-10.6975 -8.70284,-19.402 -19.402,-19.402l-17.0925,0c-10.6975,0 -19.402,8.70447 -19.402,19.402c0,10.6975 8.70447,19.4036 19.402,19.4036" style="fill:#000;fill-rule:nonzero;"/><rect x="745.488" y="244.983" width="50.3528" height="5.54365" style="fill:#000;fill-rule:nonzero;"/><path d="M368.673,191.507l35.1294,0c1.1482,0 2.08927,-0.939437 2.08927,-2.08927l0,-2.92269c0,-1.14983 -0.941067,-2.08927 -2.08927,-2.08927l-35.1294,0c-1.14983,0 -2.08927,0.939437 -2.08927,2.08927l0,2.92269c0,1.14983 0.939437,2.08927 2.08927,2.08927" style="fill:#909191;fill-rule:nonzero;"/><path d="M402.341,185.444c1.38469,0 2.51006,1.12537 2.51006,2.51169c0,1.38632 -1.12537,2.51169 -2.51006,2.51169l-32.2051,0c-1.38469,0 -2.51169,-1.12537 -2.51169,-2.51169c0,-1.38632 1.127,-2.51169 2.51169,-2.51169l32.2051,0ZM370.136,192.547l32.2051,0c2.53126,0 4.58954,-2.05991 4.58954,-4.59117c0,-2.53126 -2.05828,-4.59117 -4.58954,-4.59117l-32.2051,0c-2.53126,0 -4.59117,2.05991 -4.59117,4.59117c0,2.53126 2.05991,4.59117 4.59117,4.59117" style="fill:#000;fill-rule:nonzero;"/><g><clipPath id="tag9"><rect x="448.437" y="180.248" width="74.0116" height="8.31467"/></clipPath><g clip-path="url(#tag9)"><g opacity="0.399994"><path d="M452.594,188.562l65.6969,0c2.2964,0 4.15733,-1.86256 4.15733,-4.15733c0,-2.2964 -1.86093,-4.15733 -4.15733,-4.15733l-65.6969,0c-2.2964,0 -4.15733,1.86093 -4.15733,4.15733c0,2.29477 1.86093,4.15733 4.15733,4.15733" style="fill:#dbdbdb;fill-rule:nonzero;"/></g></g></g><g><clipPath id="tag10"><rect x="307.049" y="181.736" width="34.6189" height="8.31467"/></clipPath><g clip-path="url(#tag10)"><g opacity="0.399994"><path d="M311.207,190.051l26.3042,0c2.2964,0 4.15733,-1.86256 4.15733,-4.15733c0,-2.2964 -1.86093,-4.15733 -4.15733,-4.15733l-26.3042,0c-2.2964,0 -4.15733,1.86093 -4.15733,4.15733c0,2.29477 1.86093,4.15733 4.15733,4.15733" style="fill:#dbdbdb;fill-rule:nonzero;"/></g></g></g><path d="M22.4641,294.353l47.8754,0c5.38219,0 9.7858,-4.40361 9.7858,-9.7858l0,-13.6903c0,-5.38219 -4.40361,-9.7858 -9.7858,-9.7858l-47.8754,0c-5.38219,0 -9.7858,4.40361 -9.7858,9.7858l0,13.6903c0,5.38219 4.40361,9.7858 9.7858,9.7858" style="fill:#909191;fill-rule:nonzero;"/><path d="M63.4945,263.863c7.64108,0 13.8583,6.21724 13.8583,13.8583c0,7.64108 -6.21724,13.86 -13.8583,13.86l-34.1851,0c-7.64271,0 -13.86,-6.21887 -13.86,-13.86c0,-7.64108 6.21724,-13.8583 13.86,-13.8583l34.1851,0ZM29.3094,297.125l34.1851,0c10.6991,0 19.402,-8.7061 19.402,-19.4036c0,-10.6975 -8.70284,-19.402 -19.402,-19.402l-34.1851,0c-10.6991,0 -19.4036,8.70447 -19.4036,19.402c0,10.6975 8.70447,19.4036 19.4036,19.4036" style="fill:#000;fill-rule:nonzero;"/><rect x="12.679" y="274.951" width="67.447" height="5.54365" style="fill:#000;fill-rule:nonzero;"/></g></svg>