<?xml version="1.0" standalone="no"?><!DOCTYPE svg PUBLIC "-//W3C//DTD SVG 1.1//EN" "http://www.w3.org/Graphics/SVG/1.1/DTD/svg11.dtd"><svg width="100%" height="100%" viewBox="0 0 48 48" version="1.1" xmlns="http://www.w3.org/2000/svg" xmlns:xlink="http://www.w3.org/1999/xlink" xml:space="preserve" style="fill-rule:evenodd;clip-rule:evenodd;stroke-linejoin:round;stroke-miterlimit:1.41421;"><path d="M46.1949,15.4658l-3.32091,0c-0.447606,0 -0.807004,0.359678 -0.807004,0.802501l0,3.07361l-0.821079,0.84641l0,-0.495141c0,-0.756724 -0.0544258,-1.48168 -0.135126,-2.19076l-0.00187675,-0.0383033l-0.00187675,0c-0.800435,-7.01511 -5.39379,-11.5928 -11.9512,-11.5928l-10.3024,0c-6.55737,0 -11.1489,4.57585 -11.9521,11.5919l-0.00187675,0l-0.00187675,0.0383033c-0.0788236,0.709079 -0.134188,1.43404 -0.134188,2.19076l0,0.495141l-0.819203,-0.84641l0,-3.07361c0,-0.442824 -0.362213,-0.802501 -0.80888,-0.802501l-3.3181,0c-0.44479,0 -0.807004,0.359678 -0.807004,0.802501l0,3.35668c0,0.442824 0.362213,0.802501 0.807004,0.802501l2.93899,0l2.00531,2.07585l0,1.12107c-2.23334,0.325111 -3.95526,2.22066 -3.95526,4.54221l0,5.49606c0,0.831462 0.238348,1.60313 0.626835,2.27765c-0.575225,0.149476 -1.00125,0.667973 -1.00125,1.28643c0,0.740842 0.601499,1.33781 1.34282,1.33781l1.21238,0l0,1.74047c0,1.00897 0.822018,1.82455 1.83453,1.82455l4.12979,0c1.01438,0 1.83734,-0.817449 1.83734,-1.82455l0,-1.74047l22.4253,0l0,1.74047c0,1.00897 0.823894,1.82455 1.8364,1.82455l4.12792,0c1.01532,0 1.83453,-0.817449 1.83453,-1.82455l0,-1.74047l1.21144,0c0.742256,0 1.34376,-0.596971 1.34376,-1.33781c0,-0.620327 -0.422269,-1.13695 -1.00031,-1.2883c0.385673,-0.673578 0.624959,-1.44525 0.624959,-2.27671l0,-5.49606c0,-2.31595 -1.72004,-4.21523 -3.95526,-4.54221l0,-1.12107l2.00625,-2.07585l2.94275,0c0.44479,0 0.80325,-0.359678 0.80325,-0.802501l0,-3.35668c0.00844539,-0.440021 -0.350014,-0.800633 -0.794805,-0.800633l1.42109e-14,-1.42109e-14ZM8.48059,34.4792c-1.93493,0 -3.50765,-1.5639 -3.50765,-3.49308c0,-1.92731 1.57272,-3.49214 3.50765,-3.49214c1.93775,0 3.50859,1.56577 3.50859,3.49214c0,1.93105 -1.57084,3.49308 -3.50859,3.49308l0,0ZM23.1324,33.318c0,0.242899 -0.107913,0.472719 -0.296527,0.622196c-0.145448,0.118647 -0.324678,0.177503 -0.5086,0.177503c-0.057241,0 -0.111667,-0.00747382 -0.167969,-0.0196188c-4.84015,-1.01924 -8.92771,-6.15095 -8.92771,-11.2107c0,-0.418534 0.0365967,-0.839871 0.116359,-1.32941c0.0638096,-0.388639 0.399748,-0.675446 0.79762,-0.675446l8.1817,0c0.447606,0 0.805127,0.360612 0.805127,0.802501l0,11.633ZM25.8518,34.1027c-0.0553642,0.0130792 -0.10979,0.0186845 -0.168908,0.0186845c-0.182983,0 -0.363152,-0.061659 -0.507662,-0.176569c-0.189552,-0.151345 -0.298404,-0.381165 -0.298404,-0.624064l0,-11.6311c0,-0.442824 0.359398,-0.802501 0.806065,-0.802501l8.1817,0c0.397872,0 0.73381,0.286808 0.799497,0.675446c0.0750701,0.488601 0.11542,0.911806 0.11542,1.32847c-0.00281513,5.05884 -4.08944,10.1915 -8.92771,11.2117l0,-1.42109e-14ZM9.61509,17.4641c0.633404,-4.49924 3.28713,-8.9172 9.23925,-8.9172l10.3024,0c5.95306,0 8.60679,4.41609 9.24395,8.9172l-28.7856,0l1.77636e-15,0ZM43.0382,30.9862c0,1.92918 -1.56897,3.49308 -3.50671,3.49308c-1.93869,0 -3.50765,-1.5639 -3.50765,-3.49308c0,-1.92731 1.56897,-3.49214 3.50765,-3.49214c1.93775,0.000934227 3.50671,1.56483 3.50671,3.49214Z" style="fill:#65a8e2;fill-rule:nonzero;stroke-width:0.2px;stroke:#000;"/></svg>