<?xml version="1.0" standalone="no"?><!DOCTYPE svg PUBLIC "-//W3C//DTD SVG 1.1//EN" "http://www.w3.org/Graphics/SVG/1.1/DTD/svg11.dtd"><svg width="100%" height="100%" viewBox="0 0 800 500" version="1.1" xmlns="http://www.w3.org/2000/svg" xmlns:xlink="http://www.w3.org/1999/xlink" xml:space="preserve" style="fill-rule:evenodd;clip-rule:evenodd;stroke-linejoin:round;stroke-miterlimit:1.41421;"><g><path d="M399.405,375.814c-194.245,0 -351.691,-7.52669 -351.691,-16.8162c0,-9.30113 157.446,-16.8278 351.691,-16.8278c194.233,0 351.679,7.52669 351.679,16.8278c0,9.2895 -157.446,16.8162 -351.679,16.8162Z" style="fill:#1f1f1f;fill-opacity:0.568627;fill-rule:nonzero;"/><path d="M520.308,200.728c0,0 -17.7556,-45.2414 -22.3598,-55.6675c-4.60416,-10.4376 -9.2431,-20.8753 -35.9171,-20.8753c-26.6856,0 -206.886,6.48292 -232.249,9.2431c-26.9523,2.93416 -32.5771,18.2775 -38.2366,30.6983c-9.75339,21.4088 -20.6202,45.7633 -20.6202,45.7633" style="fill:#fff;fill-rule:nonzero;"/><path d="M511.169,202.178c0,0 -4.61574,-14.6475 -10.4376,-30.2924c-5.13765,-13.8241 -11.0523,-29.6429 -17.5816,-33.6556c-6.88889,-4.23302 -36.7057,-3.68796 -63.4725,-2.23827c-27.3119,1.48446 -53.5684,2.19187 -61.1531,7.42232c-9.64902,6.64526 -13.4066,19.6228 -16.5263,31.1273c-3.82713,14.0676 -5.83348,27.6366 -5.83348,27.6366l175.005,0Z" style="fill:#3e4950;fill-rule:nonzero;"/><path d="M657.401,301.104c0,-31.6609 -24.2849,-57.3143 -54.2526,-57.3143c-29.9676,0 -54.2525,25.6534 -54.2525,57.3143c0,31.6609 24.2849,57.3143 54.2525,57.3143c29.9677,0 54.2526,-25.6534 54.2526,-57.3143Z" style="fill:#172028;fill-rule:nonzero;"/><path d="M378.229,301.104c0,-31.6609 -24.2965,-57.3143 -54.2526,-57.3143c-29.9676,0 -54.2642,25.6534 -54.2642,57.3143c0,31.6609 24.2965,57.3143 54.2642,57.3143c29.9561,0 54.2526,-25.6534 54.2526,-57.3143Z" style="fill:#172028;fill-rule:nonzero;"/><path d="M246.32,305.105c0,5.76391 4.66216,11.8873 10.4376,11.8873l466.215,0c5.76394,0 10.4376,-6.12343 10.4376,-11.8873l0,-74.8032l17.3961,-18.405c0,-5.77551 -4.67371,-9.71862 -10.4376,-9.71862l-483.611,0c-5.77549,0 -10.4376,3.22407 -10.4376,8.98796l0,93.9388Z" style="fill:#15aaa5;fill-rule:nonzero;"/><path d="M82.7967,305.836c0,5.76391 4.66215,11.1567 10.4376,11.1567l466.215,0c5.76394,0 10.4376,-6.12343 10.4376,-11.8873l0,-71.2891l24.3545,-21.919c0,-5.77551 -4.67371,-9.71862 -10.4376,-9.71862l-525.362,0c-5.7755,0 -10.4376,4.31419 -10.4376,10.0781l34.7922,93.5793Z" style="fill:#3cbfbc;fill-rule:nonzero;"/><path d="M749.194,237.086c0.0812256,-14.9722 -7.72386,-27.1495 -17.4424,-27.1959c-9.71862,-0.0579728 -17.6629,12.0381 -17.7557,26.9987c-0.0811725,14.9606 7.72386,27.1379 17.4541,27.1959c9.70699,0.0579993 17.6628,-12.0381 17.744,-26.9987Z" style="fill:#a4a49f;fill-rule:nonzero;"/><path d="M744.544,237.063c0.0695461,-11.0175 -5.68277,-19.9707 -12.8267,-20.0171c-7.1556,-0.0347731 -13.0007,8.86039 -13.0586,19.8663c-0.0695992,11.0175 5.68271,19.9707 12.8267,20.0055c7.14398,0.0463995 13.0007,-8.84881 13.0587,-19.8547Z" style="fill:#fff;fill-rule:nonzero;"/><path d="M585.671,237.086c0.0811725,-14.9722 -7.72386,-27.1495 -17.4425,-27.1959c-9.71856,-0.0579728 -17.6628,12.0381 -17.7556,26.9987c-0.0811725,14.9606 7.72386,27.1379 17.4541,27.1959c9.70699,0.0579993 17.6628,-12.0381 17.744,-26.9987Z" style="fill:#a4a49f;fill-rule:nonzero;"/><path d="M581.02,237.063c0.0695992,-11.0175 -5.68271,-19.9707 -12.8267,-20.0171c-7.1556,-0.0347731 -13.0007,8.86039 -13.0586,19.8663c-0.0695992,11.0175 5.68271,19.9707 12.8267,20.0055c7.14398,0.0463995 13.0007,-8.84881 13.0586,-19.8547Z" style="fill:#fff;fill-rule:nonzero;"/><rect x="231.232" y="298.147" width="180.919" height="17.3961" style="fill:#fff;fill-rule:nonzero;"/><rect x="397.364" y="298.147" width="180.919" height="17.3961" style="fill:#fff;fill-rule:nonzero;"/><path d="M78.0533,312.272c1.91357,2.43544 4.88249,4.72014 8.22254,4.72014l90.4596,0c5.76391,0 10.4376,-6.12343 10.4376,-11.8873l0,-20.8753c0,-5.76389 -4.67374,-8.98796 -10.4376,-8.98796l-100.897,0c-5.7755,0 -12.4324,4.16345 -10.2057,10.7508c2.21511,6.58732 11.0291,24.5053 12.4208,26.2797Z" style="fill:#fff;fill-rule:nonzero;"/><path d="M569.887,310.034c0,3.85033 3.10813,6.95843 6.95843,6.95843l170.482,0c3.83873,0 6.95843,-3.1081 6.95843,-6.95843l0,-31.3129c0,-3.83873 -3.1197,-6.95843 -6.95843,-6.95843l-170.482,0c-3.85031,0 -6.95843,3.1197 -6.95843,6.95843l0,31.3129Z" style="fill:#fff;fill-rule:nonzero;"/><path d="M583.804,298.332c0,6.45974 5.24202,11.7018 11.7018,11.7018l136.629,0c6.45977,0 11.7134,-5.24202 11.7134,-11.7018l0,-7.89784c0,-6.45974 -5.2536,-11.7133 -11.7134,-11.7133l-136.629,0c-6.45977,0 -11.7018,5.2536 -11.7018,11.7133l0,7.89784Z" style="fill:#172028;fill-rule:nonzero;"/><rect x="582.064" y="289.449" width="163.523" height="6.95843" style="fill:#fff;fill-rule:nonzero;"/><path d="M65.4006,236.97c0,1.92515 1.55405,3.47922 3.47922,3.47922l469.694,0c1.91358,0 3.47922,-1.55406 3.47922,-3.47922c0,-1.91358 -1.56564,-3.47922 -3.47922,-3.47922l-469.694,0c-1.92517,0 -3.47922,1.56564 -3.47922,3.47922Z" style="fill:#fff;fill-rule:nonzero;"/><path d="M241.704,296.117c0,-34.4094 -26.4072,-62.3012 -58.9727,-62.3012c-32.5771,0 -58.9727,27.8917 -58.9727,62.3012c0,34.4094 26.3957,62.3012 58.9727,62.3012c32.5655,0 58.9727,-27.8917 58.9727,-62.3012Z" style="fill:#172028;fill-rule:nonzero;"/><path d="M217.999,296.117c0,-20.5738 -15.784,-37.2624 -35.2677,-37.2624c-19.4836,0 -35.2793,16.6886 -35.2793,37.2624c0,20.5854 15.7956,37.2624 35.2793,37.2624c19.4836,0 35.2677,-16.677 35.2677,-37.2624Z" style="fill:#fff;fill-rule:nonzero;"/><path d="M203.85,296.117c0,-12.3164 -9.45187,-22.3018 -21.1188,-22.3018c-11.667,0 -21.1188,9.98536 -21.1188,22.3018c0,12.328 9.45187,22.3134 21.1188,22.3134c11.667,0 21.1188,-9.98536 21.1188,-22.3134Z" style="fill:#a4a49f;fill-rule:nonzero;"/><path d="M513.93,296.117c0,-34.4094 -26.4072,-62.3012 -58.9727,-62.3012c-32.5771,0 -58.9843,27.8917 -58.9843,62.3012c0,34.4094 26.4072,62.3012 58.9843,62.3012c32.5655,0 58.9727,-27.8917 58.9727,-62.3012Z" style="fill:#172028;fill-rule:nonzero;"/><path d="M490.224,296.117c0,-20.5738 -15.7956,-37.2624 -35.2676,-37.2624c-19.4836,0 -35.2793,16.6886 -35.2793,37.2624c0,20.5854 15.7956,37.2624 35.2793,37.2624c19.472,0 35.2676,-16.677 35.2676,-37.2624Z" style="fill:#fff;fill-rule:nonzero;"/><path d="M476.076,296.117c0,-12.3164 -9.45185,-22.3018 -21.1188,-22.3018c-11.6786,0 -21.1304,9.98536 -21.1304,22.3018c0,12.328 9.45185,22.3134 21.1304,22.3134c11.667,0 21.1188,-9.98536 21.1188,-22.3134Z" style="fill:#a4a49f;fill-rule:nonzero;"/><path d="M50.5443,218.043l15.1114,40.8112l82.6546,-23.9138l-97.766,-16.8974Z" style="fill:#fff;fill-rule:nonzero;"/><path d="M693.399,240.31c-3.87351,4.16345 -8.10658,7.75864 -12.4672,11.1683c-2.1571,1.75121 -4.43019,3.31684 -6.64532,4.95208c-2.2499,1.61204 -4.54614,3.1197 -6.85406,4.62736l-1.82078,1.18292l-1.87875,-1.14815c-2.45864,-1.51924 -4.90571,-3.0849 -7.30638,-4.70854c-2.35427,-1.69321 -4.80134,-3.25885 -7.086,-5.05645c-2.34264,-1.72801 -4.61574,-3.56039 -6.86563,-5.42757c-2.21512,-1.93678 -4.43019,-3.85033 -6.48297,-6.03066c2.87618,0.858204 5.57834,1.98315 8.29213,3.0965c2.67901,1.18295 5.33482,2.38907 7.92104,3.71116c2.64419,1.24095 5.12603,2.71381 7.70066,4.0707c2.52824,1.42646 5.02165,2.89933 7.48035,4.43019l-3.69959,0.0231997c2.33107,-1.46126 4.67376,-2.92256 7.06281,-4.27945c2.42387,-1.33369 4.78971,-2.74858 7.27155,-3.9663c4.92891,-2.53981 9.96219,-4.88248 15.3781,-6.64529Z" style="fill:#febc29;fill-rule:nonzero;"/><path d="M319.383,202.178l-111.335,0c0,0 9.99696,-36.8217 18.695,-44.65c8.69804,-7.82824 26.9291,-8.91836 51.7591,-10.3681c22.5685,-1.31049 54.7977,-1.19455 54.7977,-1.19455l-13.9169,56.2126Z" style="fill:#3e4950;fill-rule:nonzero;"/></g></svg>