<?xml version="1.0" standalone="no"?>
<!DOCTYPE svg PUBLIC "-//W3C//DTD SVG 1.1//EN" "http://www.w3.org/Graphics/SVG/1.1/DTD/svg11.dtd">
<svg width="100%" height="100%" viewBox="0 0 50 50" version="1.1" xmlns="http://www.w3.org/2000/svg" xmlns:xlink="http://www.w3.org/1999/xlink" xml:space="preserve" style="fill-rule:evenodd;clip-rule:evenodd;stroke-linejoin:round;stroke-miterlimit:1.41421;">
    <g id="Layer1">
        <path d="M25,0C11.2151,0 0,11.2151 0,25C0,38.7839 11.2151,50 25,50C38.7839,50 50,38.7839 50,25C50,11.2151 38.786,0 25,0ZM31.2173,25.8801L27.15,25.8801C27.15,32.3784 27.15,40.377 27.15,40.377L21.123,40.377C21.123,40.377 21.123,32.4559 21.123,25.8801L18.2581,25.8801L18.2581,20.7565L21.123,20.7565L21.123,17.4424C21.123,15.0689 22.2509,11.3601 27.2053,11.3601L31.6714,11.3772L31.6714,16.3508C31.6714,16.3508 28.9575,16.3508 28.4299,16.3508C27.9022,16.3508 27.152,16.6146 27.152,17.7465L27.152,20.7575L31.7439,20.7575L31.2173,25.8801Z" style="fill:rgb(153,153,153);fill-rule:nonzero;"/>
    </g>
</svg>
