<?xml version="1.0" standalone="no"?><!DOCTYPE svg PUBLIC "-//W3C//DTD SVG 1.1//EN" "http://www.w3.org/Graphics/SVG/1.1/DTD/svg11.dtd"><svg width="100%" height="100%" viewBox="0 0 100 30" version="1.1" xmlns="http://www.w3.org/2000/svg" xmlns:xlink="http://www.w3.org/1999/xlink" xml:space="preserve" style="fill-rule:evenodd;clip-rule:evenodd;stroke-linejoin:round;stroke-miterlimit:1.41421;"><g id="Layer1"><path d="M20.6562,7.747c0,1.91201 -0.82169,3.36577 -2.46507,4.36128c-1.76979,1.07452 -4.40868,1.57227 -7.91667,1.49326c-1.15353,2.86011 -2.7179,4.71682 -4.69311,5.57011c0.774285,0.0316035 1.70659,0.418746 2.79691,1.16143c0.963906,0.679475 1.93571,1.35895 2.91542,2.03842c1.16933,0.711078 2.23595,1.06662 3.19985,1.06662c0.963906,0 1.74214,-0.347638 2.33471,-1.04291c0.592565,-0.695276 0.888848,-1.61178 0.888848,-2.7495c0,-0.474052 -0.201472,-0.892798 -0.604416,-1.25624c-0.402944,-0.36344 -0.849343,-0.54516 -1.3392,-0.54516c-0.45825,0 -0.837492,0.158017 -1.13772,0.474052c-0.237026,0.252828 -0.355539,0.513556 -0.355539,0.782186c0,0.173819 0.0553061,0.260729 0.165918,0.260729c0.0790087,0 0.18567,-0.0237026 0.319985,-0.0711078c0.134315,-0.0474052 0.248877,-0.0711078 0.343688,-0.0711078c0.36344,0 0.54516,0.27653 0.54516,0.829591c-1.77636e-15,0.679475 -0.339737,1.01921 -1.01921,1.01921c-0.489854,0 -0.896748,-0.193571 -1.22068,-0.580714c-0.323936,-0.387142 -0.485903,-0.841442 -0.485903,-1.3629c0,-0.72688 0.264679,-1.35895 0.794037,-1.89621c0.529358,-0.537259 1.16538,-0.805888 1.90806,-0.805888c0.963906,0 1.78165,0.351589 2.45322,1.05477c0.671574,0.703177 1.00736,1.53672 1.00736,2.50062c-3.55271e-15,1.58017 -0.576763,2.87592 -1.73029,3.88723c-1.09032,0.948104 -2.42557,1.42216 -4.00574,1.42216c-1.35895,0 -2.61519,-0.45825 -3.76871,-1.37475c-0.884897,-0.837492 -1.7777,-1.67498 -2.67839,-2.51248c-1.01131,-0.916501 -2.00682,-1.37475 -2.98653,-1.37475c-0.110612,0 -0.244927,0.0395043 -0.402944,0.118513c-0.158017,0.0790087 -0.292332,0.118513 -0.402944,0.118513c-0.205423,0 -0.383192,-0.0671574 -0.533308,-0.201472c-0.150116,-0.134315 -0.209373,-0.288382 -0.17777,-0.462201c0.0474052,-0.237026 0.505655,-0.529358 1.37475,-0.876996c1.02711,-0.410845 1.8014,-0.952054 2.32285,-1.62363c0.521457,-0.671574 1.05082,-1.84485 1.58807,-3.51984c-1.75399,0.0948104 -2.63099,0.568862 -2.63099,1.42216c0,0.158017 0.102711,0.308134 0.308134,0.450349c0.205423,0.142216 0.308134,0.355539 0.308134,0.63997c0,0.237026 -0.09086,0.430597 -0.27258,0.580714c-0.18172,0.150116 -0.391093,0.225175 -0.628119,0.225175c-0.36344,0 -0.667623,-0.146166 -0.91255,-0.438498c-0.244927,-0.292332 -0.36739,-0.620218 -0.36739,-0.983658c0,-0.916501 0.45825,-1.68288 1.37475,-2.29915c0.805888,-0.537259 1.90411,-0.916501 3.29466,-1.13772c0.837492,-2.57568 1.87251,-4.5272 3.10504,-5.85454c1.54857,-1.67498 3.41317,-2.51248 5.59381,-2.51248c1.15353,0 2.08583,0.402944 2.79691,1.20883c0.663673,0.774285 0.995509,1.73029 0.995509,2.86801ZM19.0681,7.20184c0,-0.600466 -0.193571,-1.12587 -0.580714,-1.57622c-0.387142,-0.450349 -0.888848,-0.675524 -1.50512,-0.675524c-1.73819,3.55271e-15 -3.08924,0.711078 -4.05314,2.13323c-0.537259,0.774285 -1.21673,2.37026 -2.03842,4.78793c1.97522,-0.0790087 3.79242,-0.54516 5.4516,-1.39845c1.8172,-0.932302 2.7258,-2.02262 2.7258,-3.27096Z" style="fill:#c7a06a;fill-rule:nonzero;"/><path d="M26.5107,5.73228c0,0.584664 -0.126414,1.09032 -0.379242,1.51697c-0.284431,0.489854 -0.671574,0.734781 -1.16143,0.734781c-0.284431,0 -0.521457,-0.122463 -0.711078,-0.36739c-0.189621,-0.244927 -0.284431,-0.517507 -0.284431,-0.81774c0,-0.568862 0.158017,-1.07847 0.474052,-1.52882c0.316035,-0.450349 0.679475,-0.675524 1.09032,-0.675524c0.268629,3.55271e-15 0.497755,0.102711 0.687375,0.308134c0.189621,0.205423 0.284431,0.481953 0.284431,0.829591ZM25.5389,9.61951c0,0.474052 -0.651822,1.90016 -1.95546,4.27832c-1.30364,2.37816 -1.95546,4.00179 -1.95546,4.87088c0,0.45825 0.142216,0.687375 0.426647,0.687375c0.505655,0 0.884897,-0.264679 1.13772,-0.794037c0.252828,-0.529358 0.497755,-0.794037 0.734781,-0.794037c0.268629,0 0.402944,0.237026 0.402944,0.711078c0,0.632069 -0.27258,1.15748 -0.81774,1.57622c-0.54516,0.418746 -1.16538,0.628119 -1.86065,0.628119c-0.568862,0 -1.01526,-0.221224 -1.3392,-0.663673c-0.323936,-0.442449 -0.485903,-0.987608 -0.485903,-1.63548c0,-1.02711 0.418746,-2.46112 1.25624,-4.30202c0.837492,-1.8409 1.25624,-2.87197 1.25624,-3.09319c0,-0.126414 -0.158017,-0.217274 -0.474052,-0.27258c-0.316035,-0.0553061 -0.474052,-0.18567 -0.474052,-0.391093c0,-0.474052 0.513556,-0.711078 1.54067,-0.711078c0.916501,1.77636e-15 1.52092,-0.0750582 1.81325,-0.225175c0.292332,-0.150116 0.446399,-0.225175 0.462201,-0.225175c0.221224,0 0.331836,0.118513 0.331836,0.355539Z" style="fill:#c7a06a;fill-rule:nonzero;"/><path d="M32.8156,11.0417c0,0.347638 -0.09086,0.651822 -0.27258,0.91255c-0.18172,0.260729 -0.422696,0.391093 -0.722929,0.391093c-0.268629,1.77636e-15 -0.505655,-0.0869095 -0.711078,-0.260729c-0.205423,-0.173819 -0.308134,-0.387142 -0.308134,-0.63997c0,-0.252828 0.102711,-0.474052 0.308134,-0.663673c-0.189621,-0.126414 -0.450349,-0.189621 -0.782186,-0.189621c-0.379242,0 -0.72688,0.110612 -1.04291,0.331836c-0.36344,0.237026 -0.54516,0.537259 -0.54516,0.900699c0,0.505655 0.201472,1.03106 0.604416,1.57622c0.402944,0.54516 0.801938,1.07057 1.19698,1.57622c0.410845,0.679475 0.616268,1.39845 0.616268,2.15694c0,1.01131 -0.410845,1.8646 -1.23254,2.55988c-0.82169,0.695276 -1.75399,1.04291 -2.79691,1.04291c-0.742681,0 -1.37475,-0.213323 -1.89621,-0.63997c-0.568862,-0.442449 -0.853294,-1.00341 -0.853294,-1.68288c0,-0.379242 0.130364,-0.718979 0.391093,-1.01921c0.260729,-0.300233 0.572813,-0.450349 0.936253,-0.450349c0.316035,0 0.584664,0.114563 0.805888,0.343688c0.221224,0.229125 0.331836,0.501705 0.331836,0.81774c0,0.553061 -0.284431,0.884897 -0.853294,0.995509c-0.0158017,0.158017 0.0711078,0.304183 0.260729,0.438498c0.189621,0.134315 0.387142,0.201472 0.592565,0.201472c0.568862,0 1.06267,-0.205423 1.48141,-0.616268c0.418746,-0.410845 0.628119,-0.892798 0.628119,-1.44586c0,-0.695276 -0.375291,-1.54067 -1.12587,-2.53618c-0.750582,-0.995509 -1.12587,-1.8567 -1.12587,-2.58358c0,-0.884897 0.391093,-1.63153 1.17328,-2.2399c0.782186,-0.608367 1.68684,-0.888847 2.71395,-0.841442c0.600466,0.0158017 1.10612,0.150116 1.51697,0.402944c0.474052,0.284431 0.711078,0.671574 0.711078,1.16143Z" style="fill:#c7a06a;fill-rule:nonzero;"/><path d="M40.3768,9.66691l-0.474052,1.18513l-2.25175,0c-0.505655,1.09032 -1.44586,3.10504 -2.82061,6.04416c-0.331836,0.711078 -0.497755,1.30364 -0.497755,1.77769c0,0.45825 0.142216,0.687375 0.426647,0.687375c0.316035,0 0.628119,-0.229125 0.936253,-0.687375c0.308134,-0.45825 0.604416,-0.687375 0.888847,-0.687375c0.268629,0 0.402944,0.189621 0.402944,0.568862c0,0.537259 -0.308134,1.04291 -0.924401,1.51697c-0.616268,0.474052 -1.29574,0.711078 -2.03842,0.711078c-0.568862,0 -1.01526,-0.221224 -1.3392,-0.663673c-0.323936,-0.442449 -0.485903,-0.987608 -0.485903,-1.63548c0,-0.695276 0.18172,-1.43796 0.54516,-2.22804l2.46507,-5.40419l-1.94361,0l0.474052,-1.18513l2.01472,0l0.829591,-1.8251c0.158017,-0.331836 0.36344,-0.651821 0.616268,-0.959955c0.252828,-0.308134 0.45825,-0.466151 0.616268,-0.474052c0.158017,-0.00790087 0.418746,-0.0434548 0.782186,-0.106662c0.0790087,-0.0158017 0.197522,-0.0632069 0.355539,-0.142216c0.158017,-0.0790087 0.292332,-0.118513 0.402944,-0.118513c0.158017,0 0.252828,0.0632069 0.284431,0.189621c-0.0158017,-0.0474052 -0.0237026,0.0869095 -0.0237026,0.402944c0,0.0316035 -0.244927,0.560962 -0.734781,1.58807c-0.221224,0.474052 -0.450349,0.956005 -0.687375,1.44586l2.18064,0Z" style="fill:#c7a06a;fill-rule:nonzero;"/><path d="M49.763,11.4209c0.0632069,0.600466 -0.18172,0.987608 -0.734781,1.16143l-2.08583,5.14346c-0.158017,0.395043 -0.237026,0.734781 -0.237026,1.01921c0,0.347638 0.150116,0.521457 0.450349,0.521457c0.300233,0 0.54911,-0.240976 0.746632,-0.722929c0.197522,-0.481953 0.343688,-0.722929 0.438498,-0.722929c0.284431,0 0.426647,0.237026 0.426647,0.711078c0,0.426647 -0.201472,0.861194 -0.604416,1.30364c-0.402944,0.442449 -0.865145,0.663673 -1.3866,0.663673c-0.537259,0 -0.995509,-0.126414 -1.37475,-0.379242c-0.426647,-0.300233 -0.63997,-0.703177 -0.63997,-1.20883c0,-0.268629 0.126414,-0.742681 0.379242,-1.42216l1.51697,-4.12425c0.0632069,-0.189621 0.0237026,-0.284431 -0.118513,-0.284431c-0.110612,0 -0.197522,0.0869095 -0.260729,0.260729l-1.49326,4.10055c-0.316035,0.869095 -0.766384,1.61968 -1.35105,2.25175c-0.632069,0.663673 -1.24044,0.995509 -1.8251,0.995509c-0.900699,0 -1.58807,-0.308134 -2.06213,-0.924401c-0.426647,-0.537259 -0.63997,-1.24044 -0.63997,-2.10953c0,-2.11743 0.766384,-3.98994 2.29915,-5.61752c1.59598,-1.69079 3.47638,-2.53618 5.64122,-2.53618c0.72688,0 1.38265,0.18172 1.96732,0.54516c0.584664,0.36344 0.900699,0.82169 0.948104,1.37475ZM48.3645,11.0654c-0.268629,-0.316035 -0.72688,-0.474052 -1.37475,-0.474052c-1.7856,0 -3.23145,0.884897 -4.33758,2.65469c-0.948104,1.51697 -1.42216,3.23145 -1.42216,5.14346c0,0.205423 0.0671574,0.410845 0.201472,0.616268c0.134315,0.205423 0.27258,0.308134 0.414796,0.308134c0.300233,0 0.651821,-0.205423 1.05477,-0.616268c0.402944,-0.410845 0.707128,-0.869095 0.91255,-1.37475l1.99102,-5.02495l2.10953,0c-0.110612,-0.142216 -0.165918,-0.292332 -0.165918,-0.450349c0,-0.347638 0.205423,-0.608367 0.616268,-0.782186Z" style="fill:#c7a06a;fill-rule:nonzero;"/><path d="M64.4349,11.9424c0,0.442449 -0.505655,1.65918 -1.51697,3.6502c-1.01131,1.99102 -1.51697,3.19985 -1.51697,3.6265c0,0.284431 0.0790087,0.426647 0.237026,0.426647c0.316035,0 0.679475,-0.27653 1.09032,-0.829591c0.410845,-0.553061 0.671574,-0.829591 0.782186,-0.829591c0.268629,0 0.402944,0.165918 0.402944,0.497755c0,0.347638 -0.268629,0.805888 -0.805888,1.37475c-0.584664,0.600466 -1.13772,0.900699 -1.65918,0.900699c-0.632069,0 -1.07452,-0.126414 -1.32735,-0.379242c-0.300233,-0.284431 -0.450349,-0.829591 -0.450349,-1.63548c0,-0.837492 0.493804,-2.2399 1.48141,-4.20721c0.987608,-1.96732 1.48141,-3.02998 1.48141,-3.188c0,-0.268629 -0.102711,-0.402944 -0.308134,-0.402944c-0.616268,0 -1.49326,1.13772 -2.63099,3.41317c-0.331836,0.679475 -1.12192,2.45717 -2.37026,5.33309c-0.142216,0.316035 -0.221224,0.489854 -0.237026,0.521457c-0.0948104,0.142216 -0.252828,0.221224 -0.474052,0.237026l-1.23254,0.0474052c-0.316035,0.0158017 -0.584664,0.0987608 -0.805888,0.248877c-0.221224,0.150116 -0.426647,0.225175 -0.616268,0.225175c-0.189621,0 -0.284431,-0.189621 -0.284431,-0.568862c0,-0.647871 0.643921,-2.2715 1.93176,-4.87088c1.28784,-2.59939 1.93176,-3.99389 1.93176,-4.18351c0,-0.268629 -0.102711,-0.402944 -0.308134,-0.402944c-1.13772,0 -2.80481,2.91542 -5.00125,8.74626c-0.0474052,0.142216 -0.102711,0.268629 -0.165918,0.379242c-0.142216,0.237026 -0.316035,0.36344 -0.521457,0.379242l-0.995509,0.0474052c-0.316035,0.0158017 -0.588615,0.0987608 -0.81774,0.248877c-0.229125,0.150116 -0.438498,0.225175 -0.628119,0.225175c-0.205423,0 -0.308134,-0.118513 -0.308134,-0.355539c0,-0.0790087 0.0158017,-0.150116 0.0474052,-0.213323c0.837492,-1.45376 1.56437,-3.00233 2.18064,-4.64571c0.711078,-1.91201 1.06662,-3.46848 1.06662,-4.66941c-7.10543e-15,-0.126414 -0.158017,-0.217274 -0.474052,-0.27258c-0.316035,-0.0553061 -0.474052,-0.18567 -0.474052,-0.391093c0,-0.474052 0.513556,-0.711078 1.54067,-0.711078c0.916501,1.77636e-15 1.52092,-0.0750582 1.81325,-0.225175c0.292332,-0.150116 0.446399,-0.225175 0.462201,-0.225175c0.221224,0 0.331836,0.118513 0.331836,0.355539c0,0.142216 -0.513556,1.34315 -1.54067,3.6028c-1.18513,2.57568 -1.96732,4.43239 -2.34656,5.57011c-0.0316035,0.0948104 -0.0158017,0.150116 0.0474052,0.165918c0.0790087,0 0.134315,-0.0395043 0.165918,-0.118513c1.58017,-3.80822 2.83641,-6.3365 3.76871,-7.58483c0.711078,-0.963906 1.50907,-1.44586 2.39396,-1.44586c1.05872,1.77636e-15 1.58807,0.63997 1.58807,1.91991c0,0.189621 -0.395043,1.19303 -1.18513,3.01023c-0.916501,2.10163 -1.49326,3.52379 -1.73029,4.26647c0,0.0474052 0.0474052,0.0711078 0.142216,0.0711078c0.0316035,0 0.387142,-0.797988 1.06662,-2.39396c0.805888,-1.91201 1.56437,-3.40527 2.27545,-4.47979c1.04291,-1.59598 2.02262,-2.39396 2.93912,-2.39396c1.04291,1.77636e-15 1.56437,0.711078 1.56437,2.13323Z" style="fill:#c7a06a;fill-rule:nonzero;"/><path d="M73.0152,12.7245c0,2.02262 -0.659722,3.84377 -1.97917,5.46345c-1.31944,1.61968 -2.83246,2.42952 -4.53905,2.42952c-2.02262,0 -3.03393,-1.08242 -3.03393,-3.24726c0,-1.8646 0.742681,-3.6502 2.22804,-5.35679c1.45376,-1.65918 2.92332,-2.48877 4.40868,-2.48877c0.948104,1.77636e-15 1.68288,0.316035 2.20434,0.948104c0.474052,0.568862 0.711078,1.31944 0.711078,2.25175ZM70.8583,11.6342c0,-0.616268 -0.205423,-0.924401 -0.616268,-0.924401c-0.932302,0 -1.96732,0.904649 -3.10504,2.71395c-1.13772,1.8093 -1.70659,3.45663 -1.70659,4.94199c0,0.72688 0.308134,1.09032 0.924401,1.09032c1.21673,0 2.29125,-0.861194 3.22355,-2.58358c0.853294,-1.62758 1.27994,-3.37367 1.27994,-5.23827Z" style="fill:#c7a06a;fill-rule:nonzero;"/><path d="M81.9037,9.66691l-0.474052,1.18513l-2.25175,0c-0.505655,1.09032 -1.44586,3.10504 -2.82061,6.04416c-0.331836,0.711078 -0.497755,1.30364 -0.497755,1.77769c0,0.45825 0.142216,0.687375 0.426647,0.687375c0.316035,0 0.628119,-0.229125 0.936253,-0.687375c0.308134,-0.45825 0.604416,-0.687375 0.888847,-0.687375c0.268629,0 0.402944,0.189621 0.402944,0.568862c0,0.537259 -0.308134,1.04291 -0.924401,1.51697c-0.616268,0.474052 -1.29574,0.711078 -2.03842,0.711078c-0.568862,0 -1.01526,-0.221224 -1.3392,-0.663673c-0.323936,-0.442449 -0.485903,-0.987608 -0.485903,-1.63548c0,-0.695276 0.18172,-1.43796 0.54516,-2.22804l2.46507,-5.40419l-1.94361,0l0.474052,-1.18513l2.01472,0l0.829591,-1.8251c0.158017,-0.331836 0.36344,-0.651821 0.616268,-0.959955c0.252828,-0.308134 0.45825,-0.466151 0.616268,-0.474052c0.158017,-0.00790087 0.418746,-0.0434548 0.782186,-0.106662c0.0790087,-0.0158017 0.197522,-0.0632069 0.355539,-0.142216c0.158017,-0.0790087 0.292332,-0.118513 0.402944,-0.118513c0.158017,0 0.252828,0.0632069 0.284431,0.189621c-0.0158017,-0.0474052 -0.0237026,0.0869095 -0.0237026,0.402944c0,0.0316035 -0.244927,0.560962 -0.734781,1.58807c-0.221224,0.474052 -0.450349,0.956005 -0.687375,1.44586l2.18064,0Z" style="fill:#c7a06a;fill-rule:nonzero;"/><path d="M89.2752,12.7245c0,2.02262 -0.659722,3.84377 -1.97917,5.46345c-1.31944,1.61968 -2.83246,2.42952 -4.53905,2.42952c-2.02262,0 -3.03393,-1.08242 -3.03393,-3.24726c0,-1.8646 0.742681,-3.6502 2.22804,-5.35679c1.45376,-1.65918 2.92332,-2.48877 4.40868,-2.48877c0.948104,1.77636e-15 1.68288,0.316035 2.20434,0.948104c0.474052,0.568862 0.711078,1.31944 0.711078,2.25175ZM87.1183,11.6342c0,-0.616268 -0.205423,-0.924401 -0.616268,-0.924401c-0.932302,0 -1.96732,0.904649 -3.10504,2.71395c-1.13772,1.8093 -1.70659,3.45663 -1.70659,4.94199c0,0.72688 0.308134,1.09032 0.924401,1.09032c1.21673,0 2.29125,-0.861194 3.22355,-2.58358c0.853294,-1.62758 1.27994,-3.37367 1.27994,-5.23827Z" style="fill:#c7a06a;fill-rule:nonzero;"/><path d="M99.7281,11.3498c0,0.82169 -0.292332,1.28784 -0.876996,1.39845c-0.268629,0.0474052 -0.517507,-0.0118513 -0.746632,-0.17777c-0.229125,-0.165918 -0.343688,-0.375291 -0.343688,-0.628119c0,-0.316035 0.126414,-0.553061 0.379242,-0.711078c-0.0316035,-0.221224 -0.18172,-0.331836 -0.450349,-0.331836c-0.632069,0 -1.46166,0.979707 -2.48877,2.93912c-0.837492,1.54857 -1.69869,3.50008 -2.58358,5.85454c-0.0474052,0.142216 -0.102711,0.268629 -0.165918,0.379242c-0.142216,0.237026 -0.316035,0.36344 -0.521457,0.379242l-0.995509,0.0474052c-0.316035,0.0158017 -0.588615,0.0987608 -0.81774,0.248877c-0.229125,0.150116 -0.438498,0.225175 -0.628119,0.225175c-0.126414,0 -0.221224,-0.0632069 -0.284431,-0.189621c-0.0474052,-0.126414 -0.0395043,-0.252828 0.0237026,-0.379242c0.805888,-1.45376 1.50907,-2.97073 2.10953,-4.5509c0.758483,-2.00682 1.13772,-3.59489 1.13772,-4.76422c0,-0.126414 -0.158017,-0.217274 -0.474052,-0.27258c-0.316035,-0.0553061 -0.474052,-0.18567 -0.474052,-0.391093c0,-0.474052 0.513556,-0.711078 1.54067,-0.711078c0.916501,1.77636e-15 1.52092,-0.0750582 1.81325,-0.225175c0.292332,-0.150116 0.446399,-0.225175 0.462201,-0.225175c0.221224,0 0.331836,0.118513 0.331836,0.355539c0,0.158017 -0.513556,1.36685 -1.54067,3.6265c-1.18513,2.55988 -1.96732,4.40868 -2.34656,5.54641c-0.0316035,0.0948104 -0.0158017,0.150116 0.0474052,0.165918c0.0790087,0 0.134315,-0.0395043 0.165918,-0.118513c1.59598,-3.85562 2.83641,-6.4076 3.72131,-7.65594c0.711078,-1.01131 1.50116,-1.52487 2.37026,-1.54067c0.36344,-0.0158017 0.703177,0.0948104 1.01921,0.331836c0.410845,0.316035 0.616268,0.774285 0.616268,1.37475Z" style="fill:#c7a06a;fill-rule:nonzero;"/></g></svg>