<?xml version="1.0" standalone="no"?>
<!DOCTYPE svg PUBLIC "-//W3C//DTD SVG 1.1//EN" "http://www.w3.org/Graphics/SVG/1.1/DTD/svg11.dtd">
<svg width="100%" height="100%" viewBox="0 0 50 50" version="1.1" xmlns="http://www.w3.org/2000/svg" xmlns:xlink="http://www.w3.org/1999/xlink" xml:space="preserve" style="fill-rule:evenodd;clip-rule:evenodd;stroke-linejoin:round;stroke-miterlimit:1.41421;">
    <path d="M25,50C22.7,50 20.4833,49.7 18.35,49.1C16.2167,48.4998 14.225,47.6583 12.375,46.575C10.525,45.4917 8.84167,44.1917 7.325,42.675C5.80833,41.1585 4.50833,39.475 3.425,37.625C2.34167,35.7748 1.5,33.7833 0.9,31.6499C0.3,29.5167 3.55271e-15,27.3 3.55271e-15,25C3.55271e-15,22.7 0.3,20.4833 0.9,18.35C1.5,16.2167 2.34167,14.225 3.425,12.375C4.50833,10.525 5.80833,8.84167 7.325,7.325C8.84167,5.80833 10.525,4.50833 12.375,3.425C14.225,2.34167 16.2167,1.5 18.35,0.9C20.4833,0.3 22.7,3.55271e-15 25,3.55271e-15C28.4333,3.55271e-15 31.675,0.658333 34.725,1.975C37.775,3.29167 40.425,5.075 42.675,7.325C44.925,9.575 46.7083,12.225 48.025,15.275C49.3417,18.325 50,21.5667 50,25C50,27.3 49.7,29.5167 49.1,31.65C48.4998,33.7831 47.6583,35.7748 46.575,37.625C45.4917,39.475 44.1917,41.1583 42.675,42.675C41.1585,44.1917 39.475,45.4919 37.625,46.575C35.7748,47.6583 33.7833,48.5 31.6498,49.1C29.5167,49.7 27.3,50 25,50ZM37.05,14.7L13.35,14.7C13.1167,14.7 12.9167,14.775 12.75,14.925C12.5833,15.075 12.5,15.2833 12.5,15.55L12.5,18.2C12.5,18.3333 12.55,18.4 12.65,18.4L25.1,25.5L25.2002,25.55C25.2667,25.55 25.3169,25.5333 25.3502,25.5L37.4002,18.4C37.4667,18.3667 37.5169,18.35 37.5502,18.35C37.5833,18.35 37.6336,18.3333 37.7002,18.3C37.8336,18.3 37.9002,18.2333 37.9002,18.1L37.9002,15.55C37.9002,15.2833 37.8168,15.075 37.65,14.925C37.4832,14.775 37.2833,14.7 37.05,14.7ZM20.05,25.35C20.0833,25.3167 20.1,25.2666 20.1,25.2C20.1,25.0998 20.0667,25.05 20,25.05L12.85,20.9499C12.75,20.9166 12.6667,20.9166 12.6,20.9499C12.5333,20.9499 12.5,20.9999 12.5,21.0999L12.5,31.8499C12.5,31.9502 12.55,32.0166 12.65,32.0499L12.75,32.0499C12.8167,32.0499 12.85,32.0333 12.85,31.9999L20.05,25.35ZM28.75,26.15C28.7167,26.0498 28.6331,26.0333 28.4998,26.1L25.7498,27.7C25.4164,27.9 25.0667,27.9 24.6998,27.7L22.2998,26.3502C22.1998,26.2836 22.1164,26.2836 22.0498,26.3502L12.8998,34.8502C12.8664,34.8833 12.8498,34.9502 12.8498,35.05C12.8498,35.0833 12.8831,35.1334 12.9498,35.2C13.1498,35.2667 13.2831,35.3002 13.3498,35.3002L36.7998,35.3002C36.8665,35.3002 36.9334,35.2669 36.9998,35.2C36.9998,35.0667 36.9832,34.9836 36.9498,34.95L28.75,26.15ZM37.75,20.75L37.5502,20.75L30.7502,24.8C30.6838,24.8 30.6502,24.85 30.6502,24.95C30.6169,24.9833 30.6336,25.0333 30.7,25.0998L37.5,32.45C37.5667,32.5167 37.6167,32.5502 37.65,32.5502L37.75,32.5502C37.8502,32.45 37.9002,32.3836 37.9002,32.3502L37.9002,20.9501C37.9,20.8833 37.85,20.8167 37.75,20.75Z" style="fill:rgb(153,153,153);fill-rule:nonzero;"/>
</svg>
