<?xml version="1.0" standalone="no"?><!DOCTYPE svg PUBLIC "-//W3C//DTD SVG 1.1//EN" "http://www.w3.org/Graphics/SVG/1.1/DTD/svg11.dtd"><svg width="100%" height="100%" viewBox="0 0 900 400" version="1.1" xmlns="http://www.w3.org/2000/svg" xmlns:xlink="http://www.w3.org/1999/xlink" xml:space="preserve" style="fill-rule:evenodd;clip-rule:evenodd;stroke-linejoin:round;stroke-miterlimit:1.41421;"><g id="Layer1"><rect x="-25.6956" y="-10.3823" width="955.194" height="420.765" style="fill:#fff;"/></g><g id="objects"><path d="M510.962,257.864l82.2973,0c0.820641,0 1.48519,-0.665132 1.48519,-1.48461c0,-0.820059 -0.66455,-1.48461 -1.48519,-1.48461l-82.2973,0c-0.820059,0 -1.48461,0.66455 -1.48461,1.48461c0,0.819477 0.66455,1.48461 1.48461,1.48461" style="fill:#000;fill-opacity:0.780392;fill-rule:nonzero;"/><path d="M494.144,257.864l8.36308,0c0.820059,0 1.48461,-0.665132 1.48461,-1.48461c0,-0.820059 -0.66455,-1.48461 -1.48461,-1.48461l-8.36308,0c-0.820059,0 -1.48461,0.66455 -1.48461,1.48461c0,0.819477 0.66455,1.48461 1.48461,1.48461" style="fill:#000;fill-opacity:0.780392;fill-rule:nonzero;"/><path d="M448.4,257.864l35.5439,0c0.820059,0 1.48461,-0.665132 1.48461,-1.48461c0,-0.820059 -0.66455,-1.48461 -1.48461,-1.48461l-35.5439,0c-0.820059,0 -1.48461,0.66455 -1.48461,1.48461c0,0.819477 0.66455,1.48461 1.48461,1.48461" style="fill:#000;fill-opacity:0.780392;fill-rule:nonzero;"/><path d="M310.543,257.864l129.425,0c0.820059,0 1.48461,-0.665132 1.48461,-1.48461c0,-0.820059 -0.66455,-1.48461 -1.48461,-1.48461l-129.425,0c-0.820059,0 -1.48461,0.66455 -1.48461,1.48461c0,0.819477 0.66455,1.48461 1.48461,1.48461" style="fill:#000;fill-opacity:0.780392;fill-rule:nonzero;"/><path d="M516.746,234.852c1.79213,0 3.35362,-1.17825 3.84929,-2.8836c-0.129299,-1.75311 -0.773464,-14.6027 7.21512,-23.356c4.7893,-5.24825 11.6963,-7.90937 20.5306,-7.90937c20.3227,0 28.6706,15.7191 28.7527,15.8782c0.0512537,0.0710563 0.138618,0.214334 0.226565,0.368095c0.758905,1.25863 1.9325,1.9622 3.29363,1.9622c1.33492,0 2.6518,-0.672706 3.43749,-1.75719c0.528846,-0.729783 1.04197,-1.95579 0.486911,-3.65124c-10.9922,-33.5572 -56.1636,-37.1798 -75.0745,-37.1798c-0.940622,0 -1.77815,0.00873643 -2.50095,0.020385l-0.00174729,0c-2.07519,0 -3.93371,-0.956931 -5.05256,-2.56036c-0.213751,-0.304028 -22.0536,-30.6573 -61.6262,-30.6573c-31.104,0 -45.9728,6.45099 -46.1189,6.5168c-20.1724,7.77949 -37.2708,19.7053 -50.8659,35.4641c-14.4885,16.7722 -21.4293,33.8339 -24.2774,42.511c-0.34771,1.0606 -0.24229,2.18294 0.295874,3.15909c0.538163,0.976151 1.45607,1.68962 2.519,1.95754c0.340721,0.0937712 0.675035,0.138036 1.01517,0.138036l15.3225,0c2.06995,0 3.78754,-1.54053 3.99431,-3.5831c0.890534,-8.744 5.61111,-29.0806 30.1447,-29.0806c24.6297,0 28.9001,21.6291 29.5926,30.9275c0.149684,2.08509 1.92027,3.71591 4.03098,3.71591l110.81,0l-2.64616e-05,-0.000286685Z" style="fill:#65a8e2;fill-opacity:0.780392;fill-rule:nonzero;"/><path d="M440.283,142.136c40.5823,0 62.4376,31.0801 62.4376,31.0801c0.948775,1.3588 2.50503,2.13868 4.16436,2.13868c0.0209674,0 0.041935,0 0.0623197,-0.00058243c0.728037,-0.0116486 1.57256,-0.020385 2.52017,-0.020385c16.5235,0 64.4788,2.65413 76.0123,37.8615c1.24465,3.80036 -1.7834,6.70607 -4.86504,6.70607c-1.54926,0 -3.1125,-0.735025 -4.15272,-2.46018c-0.0786277,-0.138618 -0.157838,-0.266752 -0.24695,-0.405951c0,0 -7.91869,-15.3418 -27.8733,-15.3418c-29.5262,0 -26.7451,30.3672 -26.7451,30.3672c-0.554472,2.21731 -2.56327,3.78111 -4.8499,3.78111l-110.81,0c-2.62268,0 -4.83008,-2.0088 -5.0182,-4.63206c-0.702411,-9.433 -4.94889,-30.0114 -28.6054,-30.0114c-23.5581,0 -28.2496,19.2522 -29.1605,28.1901c-0.256851,2.54347 -2.41475,4.47365 -4.9786,4.47365l-15.3225,0c-0.435074,0 -0.86083,-0.0588254 -1.25688,-0.167739c-2.71237,-0.683188 -4.43462,-3.57321 -3.51379,-6.3846c2.95932,-9.01715 9.95777,-26.052 24.4684,-42.8492c11.6299,-13.4815 28.1109,-26.8144 51.213,-35.7228c0,0 14.8473,-6.60183 46.5213,-6.60183M440.283,144.116c-24.6227,0 -40.6734,4.20746 -45.7171,6.43117l-0.0454293,0.020385l-0.0465942,0.0180553c-19.9726,7.70147 -36.9384,19.5335 -50.4274,35.1694c-14.3743,16.6394 -21.2604,33.5648 -24.0852,42.1714c-0.260928,0.797344 -0.1823,1.64012 0.221905,2.3734c0.405951,0.736771 1.09671,1.27435 1.93541,1.48577c0.234719,0.0646495 0.481087,0.0972654 0.732111,0.0972654l15.3225,0c1.56033,0 2.8539,-1.15787 3.00941,-2.6949c2.75547,-27.0486 22.6879,-29.9689 31.1296,-29.9689c8.48074,0 28.4382,3.1026 30.5798,31.8495c0.112409,1.56673 1.44966,2.79391 3.04377,2.79391l110.81,0c1.29474,0 2.42931,-0.815399 2.84924,-2.01404c-0.152014,-2.43746 -0.518944,-15.1338 7.4842,-23.9035c4.98442,-5.46144 12.1378,-8.23088 21.2615,-8.23088c20.3454,0 28.8174,14.8904 29.5856,16.3249c0.0891116,0.140948 0.168322,0.271412 0.230642,0.380908c0.74842,1.24174 1.74903,1.50266 2.45669,1.50266c1.0076,0 2.04258,-0.53001 2.63607,-1.34891c0.393721,-0.542823 0.772882,-1.46248 0.34771,-2.76188c-10.7907,-32.9416 -55.4369,-36.4977 -74.131,-36.4977c-0.935962,0 -1.76883,0.00873643 -2.49803,0.020385l-0.0838697,0.00058243c-2.3204,0 -4.48411,-1.11593 -5.78409,-2.9797c-0.212587,-0.30228 -21.7164,-30.2391 -60.8184,-30.2391" style="fill:#000;fill-opacity:0.780392;fill-rule:nonzero;"/><path d="M518.812,226.673c0,16.4059 13.2998,29.7062 29.7062,29.7062c16.4059,0 29.7056,-13.3003 29.7056,-29.7062c0,-16.4064 -13.2998,-29.7062 -29.7056,-29.7062c-16.4064,0 -29.7062,13.2998 -29.7062,29.7062" style="fill:#151515;fill-opacity:0.780392;fill-rule:nonzero;"/><path d="M529.233,226.673c0,10.6509 8.63451,19.2854 19.2854,19.2854c10.6509,0 19.2848,-8.63451 19.2848,-19.2854c0,-10.6509 -8.63391,-19.2854 -19.2848,-19.2854c-10.6509,0 -19.2854,8.63451 -19.2854,19.2854" style="fill:#fff;fill-opacity:0.780392;fill-rule:nonzero;"/><path d="M534.307,226.673c0,7.84824 6.36246,14.2107 14.2107,14.2107c7.84824,0 14.2107,-6.36246 14.2107,-14.2107c0,-7.84824 -6.36246,-14.2107 -14.2107,-14.2107c-7.84824,0 -14.2107,6.36246 -14.2107,14.2107" style="fill:#fff;fill-opacity:0.780392;fill-rule:nonzero;"/><path d="M548.518,213.771c7.11378,0 12.9014,5.78816 12.9014,12.902c0,7.11378 -5.78759,12.902 -12.9014,12.902c-7.11438,0 -12.902,-5.78816 -12.902,-12.902c0,-7.11378 5.78759,-12.902 12.902,-12.902M548.518,242.193c8.55706,0 15.5194,-6.96175 15.5194,-15.5194c0,-8.55763 -6.96236,-15.5194 -15.5194,-15.5194c-8.55763,0 -15.5194,6.96175 -15.5194,15.5194c0,8.55763 6.96175,15.5194 15.5194,15.5194" style="fill:#000;fill-opacity:0.780392;fill-rule:nonzero;"/><path d="M546.349,226.673c0,1.19806 0.97149,2.16955 2.16955,2.16955c1.19806,0 2.16955,-0.97149 2.16955,-2.16955c0,-1.19806 -0.97149,-2.16955 -2.16955,-2.16955c-1.19806,0 -2.16955,0.97149 -2.16955,2.16955" style="fill:#fff;fill-opacity:0.780392;fill-rule:nonzero;"/><path d="M548.518,225.158c0.835786,0 1.51548,0.679695 1.51548,1.51548c0,0.835204 -0.679695,1.5149 -1.51548,1.5149c-0.835786,0 -1.51548,-0.679695 -1.51548,-1.5149c0,-0.835786 0.679695,-1.51548 1.51548,-1.51548M548.518,229.497c1.55683,0 2.82419,-1.2662 2.82419,-2.82361c0,-1.55741 -1.26736,-2.82419 -2.82419,-2.82419c-1.55683,0 -2.82419,1.26678 -2.82419,2.82419c0,1.55741 1.26736,2.82361 2.82419,2.82361" style="fill:#000;fill-opacity:0.780392;fill-rule:nonzero;"/><path d="M343.537,226.673c0,16.4059 13.2998,29.7062 29.7062,29.7062c16.4059,0 29.7056,-13.3003 29.7056,-29.7062c0,-16.4064 -13.2998,-29.7062 -29.7056,-29.7062c-16.4064,0 -29.7062,13.2998 -29.7062,29.7062" style="fill:#151515;fill-opacity:0.780392;fill-rule:nonzero;"/><path d="M353.958,226.673c0,10.6509 8.63451,19.2854 19.2854,19.2854c10.6509,0 19.2848,-8.63451 19.2848,-19.2854c0,-10.6509 -8.63391,-19.2854 -19.2848,-19.2854c-10.6509,0 -19.2854,8.63451 -19.2854,19.2854" style="fill:#fff;fill-opacity:0.780392;fill-rule:nonzero;"/><path d="M359.033,226.673c0,7.84824 6.36246,14.2107 14.2107,14.2107c7.84824,0 14.2107,-6.36246 14.2107,-14.2107c0,-7.84824 -6.36246,-14.2107 -14.2107,-14.2107c-7.84824,0 -14.2107,6.36246 -14.2107,14.2107" style="fill:#fff;fill-opacity:0.780392;fill-rule:nonzero;"/><path d="M373.243,213.771c7.11378,0 12.9014,5.78816 12.9014,12.902c0,7.11378 -5.78759,12.902 -12.9014,12.902c-7.11438,0 -12.902,-5.78816 -12.902,-12.902c0,-7.11378 5.78759,-12.902 12.902,-12.902M373.243,242.193c8.55706,0 15.5194,-6.96175 15.5194,-15.5194c0,-8.55763 -6.96236,-15.5194 -15.5194,-15.5194c-8.55763,0 -15.5194,6.96175 -15.5194,15.5194c0,8.55763 6.96175,15.5194 15.5194,15.5194" style="fill:#000;fill-opacity:0.780392;fill-rule:nonzero;"/><path d="M371.074,226.673c0,1.19806 0.97149,2.16955 2.16955,2.16955c1.19806,0 2.16955,-0.97149 2.16955,-2.16955c0,-1.19806 -0.97149,-2.16955 -2.16955,-2.16955c-1.19806,0 -2.16955,0.97149 -2.16955,2.16955" style="fill:#fff;fill-opacity:0.780392;fill-rule:nonzero;"/><path d="M373.243,225.158c0.835786,0 1.51548,0.679695 1.51548,1.51548c0,0.835204 -0.679695,1.5149 -1.51548,1.5149c-0.835786,0 -1.51548,-0.679695 -1.51548,-1.5149c0,-0.835786 0.679695,-1.51548 1.51548,-1.51548M373.243,229.497c1.55683,0 2.82419,-1.2662 2.82419,-2.82361c0,-1.55741 -1.26736,-2.82419 -2.82419,-2.82419c-1.55683,0 -2.82419,1.26678 -2.82419,2.82419c0,1.55741 1.26736,2.82361 2.82419,2.82361" style="fill:#000;fill-opacity:0.780392;fill-rule:nonzero;"/><path d="M487.362,176.089c2.34428,3.40371 -0.14153,8.0445 -4.27446,8.0445l-37.3412,0c-3.19112,0 -5.77827,-2.58657 -5.77827,-5.7777l0,-11.4238c0,-3.75665 3.04494,-6.80159 6.80159,-6.80159l17.3965,0c2.62675,0 5.19351,0.732697 7.42596,2.11655c4.35831,2.70305 11.5851,7.76492 15.7698,13.842" style="fill:#c9f9ff;fill-opacity:0.780392;fill-rule:nonzero;"/><path d="M464.166,161.12c2.43979,0 4.82715,0.680277 6.90412,1.96686c3.99952,2.48056 11.3294,7.5407 15.4763,13.563c0.880632,1.27785 0.972072,2.86672 0.245203,4.25c-0.738521,1.40482 -2.12295,2.24351 -3.70423,2.24351l-37.3412,0c-2.64015,0 -4.78815,-2.148 -4.78815,-4.78873l0,-11.4232c0,-3.20452 2.60695,-5.81148 5.81148,-5.81148l17.3965,0l-4.89236e-05,-1.78553e-05ZM445.746,185.123l37.3412,0c2.29535,0 4.38627,-1.26504 5.45619,-3.30179c1.07574,-2.04666 0.938876,-4.39909 -0.366348,-6.29489c-4.35191,-6.31878 -11.9322,-11.5595 -16.064,-14.121c-2.39087,-1.48228 -5.13876,-2.26507 -7.94723,-2.26507l-17.3965,0c-4.29656,0 -7.79113,3.49515 -7.79113,7.79113l0,11.4232c0,3.73219 3.0362,6.76842 6.76781,6.76842" style="fill:#000;fill-opacity:0.780392;fill-rule:nonzero;"/><path d="M473.663,177.158c0.172399,0 0.340138,-0.0896941 0.430995,-0.251609c0.135123,-0.237631 0.0506713,-0.539327 -0.18696,-0.674453l-19.6587,-11.1162c-0.237631,-0.133958 -0.540495,-0.0512537 -0.673871,0.187542c-0.135123,0.238213 -0.0506713,0.539327 0.18696,0.675035l19.6587,11.1157c0.0768807,0.043682 0.160168,0.064067 0.242873,0.064067" style="fill:#2f90aa;fill-opacity:0.390196;fill-rule:nonzero;"/><path d="M466.644,177.158c0.172399,0 0.340138,-0.0896941 0.430995,-0.251609c0.135123,-0.237631 0.0506713,-0.539327 -0.18696,-0.674453l-19.6581,-11.1162c-0.237631,-0.133958 -0.540495,-0.0512537 -0.674453,0.187542c-0.134541,0.238213 -0.0506713,0.539327 0.187542,0.675035l19.6581,11.1157c0.0768807,0.043682 0.160168,0.064067 0.242873,0.064067" style="fill:#2f90aa;fill-opacity:0.390196;fill-rule:nonzero;"/><path d="M431.18,166.636l0,10.9916c0,3.89235 -3.15501,7.04739 -7.04739,7.04739l-35.1233,0c-5.36242,0 -8.84417,-5.79516 -6.17783,-10.4482c1.82067,-3.17657 5.48591,-6.5168 12.5263,-9.14064c11.8175,-4.40316 22.1544,-5.41134 28.6473,-5.49698c3.94303,-0.0524186 7.17495,3.10318 7.17495,7.04682" style="fill:#c9f9ff;fill-opacity:0.780392;fill-rule:nonzero;"/><path d="M424.019,160.579c3.44041,0 6.17084,2.71703 6.17084,6.05667l0,10.9928c0,3.33965 -2.71703,6.05667 -6.05724,6.05667l-35.1233,0c-2.20042,0 -4.176,-1.14273 -5.28496,-3.05542c-1.07691,-1.85911 -1.08972,-4.06884 -0.0337808,-5.91108c2.04432,-3.56796 6.08581,-6.49641 12.0126,-8.7044c11.6381,-4.33617 21.8213,-5.34903 28.3148,-5.43523l0.00116486,0l-2.3544e-05,1.78553e-05ZM389.01,185.665l35.1233,0c4.43169,0 8.03693,-3.60581 8.03693,-8.03636l0,-10.9928c0,-4.43169 -3.6192,-8.0375 -8.06839,-8.0375l-0.108914,0.00116486c-6.65075,0.0879468 -17.0768,1.12409 -28.9799,5.55929c-6.37178,2.37456 -10.7592,5.59657 -13.04,9.57627c-1.41064,2.46192 -1.39608,5.41016 0.0396053,7.88723c1.46655,2.53182 4.08283,4.04262 6.99729,4.04262" style="fill:#000;fill-opacity:0.780392;fill-rule:nonzero;"/><path d="M421.986,174.761c0.172399,0 0.340138,-0.0896941 0.430995,-0.251609c0.135123,-0.237631 0.0506713,-0.539327 -0.18696,-0.674453l-11.1791,-6.32168c-0.237048,-0.134541 -0.539913,-0.0512537 -0.673871,0.187542c-0.135123,0.237631 -0.0506713,0.539327 0.18696,0.674453l11.1791,6.32225c0.0768807,0.0430995 0.160168,0.0634846 0.242873,0.0634846" style="fill:#2f90aa;fill-opacity:0.390196;fill-rule:nonzero;"/><path d="M415.902,174.761c0.172399,0 0.340138,-0.0896941 0.430995,-0.251609c0.135123,-0.237631 0.0506713,-0.539327 -0.18696,-0.674453l-11.1791,-6.32168c-0.237631,-0.134541 -0.539327,-0.0512537 -0.673871,0.187542c-0.135123,0.237631 -0.0506713,0.539327 0.18696,0.674453l11.1791,6.32225c0.0768807,0.0430995 0.160168,0.0634846 0.242873,0.0634846" style="fill:#2f90aa;fill-opacity:0.390196;fill-rule:nonzero;"/><path d="M436.305,186.955l65.4255,0l0,-4.83647c-1.83873,-2.50444 -17.8398,-23.4946 -41.2169,-28.9554c-7.77078,-1.81543 -16.1904,-2.51842 -24.2086,-2.6087l0,36.4006l3.57106e-05,3.57106e-05ZM416.197,225.683l18.1287,0l0,-36.7488l-42.3582,0c15.4454,5.85922 24.8872,20.9407 24.2296,36.7488M501.73,188.935l-65.4255,0l0,36.7488l65.4255,0l0,-36.7488ZM505.507,225.683c-0.324413,-1.9855 -0.500306,-4.01991 -0.500306,-6.09452c0,-12.6067 6.20926,-23.7852 15.7273,-30.6544l-17.0244,0l0,36.7488l1.79737,0l-2.14264e-05,0.000142843ZM342.733,194.185c13.8053,-19.2696 32.6818,-30.9433 46.0864,-37.3437c8.08703,-3.8615 16.8112,-6.29257 25.9297,-7.22619c5.62103,-0.575438 12.3976,-1.04313 19.5766,-1.04954l0,-6.37117l1.97967,0l0,6.38049c8.15285,0.090859 16.7285,0.807828 24.6588,2.66053c20.7234,4.84058 35.7692,21.4689 40.7666,27.6543l0,-4.03916l1.97967,0l0,12.104l20.0472,0l0,0.00931887c5.59539,-3.27791 12.0988,-5.16615 19.0407,-5.16615c20.5784,0 37.3558,16.5398 37.7619,37.0187l-1.94997,0c-0.405951,-19.41 -16.322,-35.0692 -35.8117,-35.0692c-19.7665,0 -35.8413,16.0849 -35.8413,35.8413c0,2.07811 0.185795,4.11312 0.527096,6.09452l0.179388,0l0,0.941786c0.650573,3.24995 1.73098,6.34671 3.20336,9.21635l-2.1777,0c-1.23242,-2.57899 -2.17479,-5.32106 -2.8009,-8.17845l-2.1777,0l0,7.29494l-1.97967,0l0,-7.29494l-65.4255,0l0,6.03046l-1.97967,0l0,-6.03046l-18.2638,0c-0.256851,2.70247 -0.801422,5.41541 -1.67565,8.09692l-1.83465,-0.638924c5.97628,-18.3931 -3.86789,-38.3379 -22.2028,-44.7212c-1.88649,-0.656979 -3.79161,-1.1369 -5.69849,-1.46539l-0.397217,0l0,-0.0634846c-16.7605,-2.69082 -33.5927,6.93729 -39.3617,23.5068c-1.91619,5.50337 -2.4031,11.1599 -1.64536,16.5707l-2.04898,-0.713474c-0.601649,-5.40845 -0.0430995,-11.0294 1.8597,-16.4955c6.0852,-17.4781 23.8353,-27.6286 41.5126,-24.7847l49.7564,0l0,-36.4088c-7.09806,0.00757159 -13.8088,0.468274 -19.3745,1.03905c-8.89195,0.910918 -17.3972,3.27966 -25.2791,7.04271c-13.1943,6.29954 -31.7697,17.7833 -45.3297,36.7095c-21.3833,29.8477 -16.8846,35.972 -16.8788,35.9867l-1.3588,1.43918c-0.672121,-0.634264 -5.9169,-7.1097 16.6283,-38.5779" style="fill:#000;fill-opacity:0.780392;fill-rule:nonzero;"/><path d="M327.374,232.704c2.61336,0 4.7899,-1.94298 5.06306,-4.51908c1.80378,-17.0151 11.6713,-28.8069 17.3919,-34.3208c2.29943,-2.21323 1.86727,-5.41602 0.121145,-7.23376c-0.638924,-0.676781 -1.76185,-1.48694 -3.5103,-1.53645l-0.297621,-0.00465942c-0.980229,0 -1.80728,0.12697 -2.32855,0.231807c-0.248697,0.0564957 -0.514865,0.0937712 -0.798508,0.113573c-14.2951,16.665 -21.166,33.5624 -23.9949,42.1828c-0.34771,1.0606 -0.24229,2.18236 0.295291,3.15909c0.519526,0.941204 1.392,1.63837 2.40776,1.92726l5.65071,0l-1.6784e-05,0.000123095Z" style="fill:#65a8e2;fill-opacity:0.780392;fill-rule:nonzero;"/><path d="M346.146,184.1c0.106002,0 0.213751,0.00116486 0.322083,0.00407701c1.73214,0.0495064 3.17715,0.762397 4.19639,1.84106c2.1678,2.25691 2.48464,6.09745 -0.147937,8.63158c-5.76081,5.55286 -15.3324,17.0943 -17.0943,33.7133c-0.326742,3.07814 -2.95,5.40434 -6.04796,5.40434l-5.78059,0c-2.71179,-0.683188 -4.43401,-3.57321 -3.51379,-6.3846c2.95932,-9.01715 9.95777,-26.052 24.4684,-42.8492c0.356446,0 0.712892,-0.0297039 1.06876,-0.108914c0.661058,-0.133958 1.54751,-0.251609 2.52891,-0.251609M346.146,186.079c-0.898687,0 -1.65759,0.115321 -2.09907,0.204432c-0.175894,0.0390228 -0.354116,0.0710563 -0.536417,0.0949357c-14.0103,16.4373 -20.7601,33.0482 -23.5494,41.5468c-0.260928,0.797344 -0.1823,1.64012 0.222488,2.3734c0.370423,0.672706 0.977897,1.17942 1.68788,1.4153l5.5028,0c2.10548,0 3.85918,-1.56207 4.07933,-3.63377c1.83698,-17.3267 11.8711,-29.3218 17.6901,-34.9306c1.8527,-1.7834 1.50266,-4.36648 0.0821223,-5.84526c-0.505548,-0.535253 -1.40424,-1.18175 -2.8108,-1.22194c-0.0902765,-0.00232971 -0.180553,-0.00349457 -0.269082,-0.00349457" style="fill:#000;fill-opacity:0.780392;fill-rule:nonzero;"/><path d="M347.968,190.802c0,0 -6.20112,5.60121 -8.86167,12.026" style="fill:#5cc1e4;fill-opacity:0.780392;fill-rule:nonzero;"/><path d="M339.107,203.199c0.145607,0 0.283643,-0.0861994 0.34305,-0.228895c2.59763,-6.27568 8.70615,-11.8373 8.76729,-11.8926c0.152014,-0.136871 0.163662,-0.372173 0.0267917,-0.523604c-0.138036,-0.153761 -0.372173,-0.164245 -0.524768,-0.0273741c-0.0623197,0.0570781 -6.29372,5.73109 -8.95541,12.1594c-0.0786277,0.189289 0.0116486,0.406534 0.200938,0.485161c0.0465942,0.0192201 0.0949357,0.0279566 0.142113,0.0279566" style="fill:#000;fill-opacity:0.780392;fill-rule:nonzero;"/><path d="M345.397,190.802c0,0 -6.20112,5.60121 -8.86167,12.026" style="fill:#5cc1e4;fill-opacity:0.780392;fill-rule:nonzero;"/><path d="M336.536,203.199c0.145607,0 0.283643,-0.0861994 0.34305,-0.228895c2.59647,-6.27158 8.70558,-11.8373 8.76671,-11.8926c0.152596,-0.136871 0.164245,-0.372173 0.0267917,-0.523604c-0.138036,-0.153761 -0.372173,-0.164245 -0.524768,-0.0273741c-0.0623197,0.0570781 -6.29314,5.73109 -8.95484,12.1594c-0.0786277,0.189289 0.0116486,0.406534 0.200938,0.485161c0.0465942,0.0192201 0.0949357,0.0279566 0.142113,0.0279566" style="fill:#000;fill-opacity:0.780392;fill-rule:nonzero;"/><path d="M343.008,190.802c0,0 -6.20112,5.60121 -8.86167,12.026" style="fill:#5cc1e4;fill-opacity:0.780392;fill-rule:nonzero;"/><path d="M334.147,203.199c0.145607,0 0.283643,-0.0861994 0.34305,-0.228895c2.59705,-6.27158 8.70615,-11.8373 8.76729,-11.8926c0.152014,-0.136871 0.163662,-0.372173 0.0267917,-0.523604c-0.138036,-0.153761 -0.372173,-0.164245 -0.524768,-0.0273741c-0.0623197,0.0570781 -6.29372,5.73109 -8.95541,12.1594c-0.0786277,0.189289 0.0116486,0.406534 0.200938,0.485161c0.0465942,0.0192201 0.0949357,0.0279566 0.142113,0.0279566" style="fill:#000;fill-opacity:0.780392;fill-rule:nonzero;"/><path d="M578.772,222.992l10.9928,0c1.92201,0 3.49457,-1.57256 3.49457,-3.49457l0,-4.88889c0,-1.92201 -1.57256,-3.49457 -3.49457,-3.49457l-10.9928,0c-1.92201,0 -3.49457,1.57256 -3.49457,3.49457l0,4.88889c0,1.92201 1.57256,3.49457 3.49457,3.49457" style="fill:#909191;fill-opacity:0.780392;fill-rule:nonzero;"/><path d="M587.32,212.105c2.72868,0 4.94889,2.22022 4.94889,4.94889c0,2.72868 -2.22022,4.9495 -4.94889,4.9495l-6.10384,0c-2.72868,0 -4.94889,-2.2208 -4.94889,-4.9495c0,-2.72868 2.22022,-4.94889 4.94889,-4.94889l6.10384,0ZM581.216,223.983l6.10384,0c3.82072,0 6.92858,-3.109 6.92858,-6.92915c0,-3.82015 -3.10784,-6.92858 -6.92858,-6.92858l-6.10384,0c-3.82015,0 -6.92858,3.10842 -6.92858,6.92858c0,3.82015 3.10842,6.92915 6.92858,6.92915" style="fill:#000;fill-opacity:0.780392;fill-rule:nonzero;"/><rect x="575.277" y="216.064" width="17.9813" height="1.97967" style="fill:#000;fill-opacity:0.780392;"/><path d="M440.714,196.967l12.5449,0c0.41003,0 0.746092,-0.335479 0.746092,-0.746092l0,-1.04371c0,-0.410612 -0.336061,-0.746092 -0.746092,-0.746092l-12.5449,0c-0.410612,0 -0.746092,0.335479 -0.746092,0.746092l0,1.04371c0,0.410612 0.335479,0.746092 0.746092,0.746092" style="fill:#909191;fill-opacity:0.780392;fill-rule:nonzero;"/><path d="M452.737,194.802c0.494482,0 0.896359,0.401877 0.896359,0.896941c0,0.495064 -0.401877,0.896941 -0.896359,0.896941l-11.5006,0c-0.494482,0 -0.896941,-0.401877 -0.896941,-0.896941c0,-0.495064 0.402459,-0.896941 0.896941,-0.896941l11.5006,0ZM441.237,197.339l11.5006,0c0.903929,0 1.63895,-0.735607 1.63895,-1.63954c0,-0.903929 -0.735025,-1.63954 -1.63895,-1.63954l-11.5006,0c-0.903929,0 -1.63954,0.735607 -1.63954,1.63954c0,0.903929 0.735607,1.63954 1.63954,1.63954" style="fill:#000;fill-opacity:0.780392;fill-rule:nonzero;"/><path d="M470.683,195.915l23.4608,0c0.820059,0 1.48461,-0.665132 1.48461,-1.48461c0,-0.820059 -0.66455,-1.48461 -1.48461,-1.48461l-23.4608,0c-0.820059,0 -1.48461,0.66455 -1.48461,1.48461c0,0.819477 0.66455,1.48461 1.48461,1.48461" style="fill:#dbdbdb;fill-opacity:0.312152;fill-rule:nonzero;"/><path d="M420.193,196.447l9.3934,0c0.820059,0 1.48461,-0.665132 1.48461,-1.48461c0,-0.820059 -0.66455,-1.48461 -1.48461,-1.48461l-9.3934,0c-0.820059,0 -1.48461,0.66455 -1.48461,1.48461c0,0.819477 0.66455,1.48461 1.48461,1.48461" style="fill:#dbdbdb;fill-opacity:0.312152;fill-rule:nonzero;"/><path d="M317.081,233.694l17.0966,0c1.92201,0 3.49457,-1.57256 3.49457,-3.49457l0,-4.88889c0,-1.92201 -1.57256,-3.49457 -3.49457,-3.49457l-17.0966,0c-1.92201,0 -3.49457,1.57256 -3.49457,3.49457l0,4.88889c0,1.92201 1.57256,3.49457 3.49457,3.49457" style="fill:#909191;fill-opacity:0.780392;fill-rule:nonzero;"/><path d="M331.733,222.806c2.72868,0 4.94889,2.22022 4.94889,4.94889c0,2.72868 -2.22022,4.9495 -4.94889,4.9495l-12.2077,0c-2.72926,0 -4.9495,-2.2208 -4.9495,-4.9495c0,-2.72868 2.22022,-4.94889 4.9495,-4.94889l12.2077,0ZM319.525,234.684l12.2077,0c3.82072,0 6.92858,-3.109 6.92858,-6.92915c0,-3.82015 -3.10784,-6.92858 -6.92858,-6.92858l-12.2077,0c-3.82072,0 -6.92915,3.10842 -6.92915,6.92858c0,3.82015 3.10842,6.92915 6.92915,6.92915" style="fill:#000;fill-opacity:0.780392;fill-rule:nonzero;"/><rect x="313.586" y="226.766" width="24.0858" height="1.97967" style="fill:#000;fill-opacity:0.780392;"/></g></svg>