<?xml version="1.0" standalone="no"?><!DOCTYPE svg PUBLIC "-//W3C//DTD SVG 1.1//EN" "http://www.w3.org/Graphics/SVG/1.1/DTD/svg11.dtd"><svg width="100%" height="100%" viewBox="0 0 512 512" version="1.1" xmlns="http://www.w3.org/2000/svg" xmlns:xlink="http://www.w3.org/1999/xlink" xml:space="preserve" style="fill-rule:evenodd;clip-rule:evenodd;stroke-linejoin:round;stroke-miterlimit:1.41421;"><g><g><path d="M255.999,346.132c-33.1251,0 -63.1786,-14.2144 -85.3529,-37.1876c-0.0161568,13.7674 -0.517018,33.6421 -4.16666,48.1401c2.3948,1.46309 4.25283,3.86687 4.61546,6.85588c4.73215,38.5071 41.2304,67.5409 84.9041,67.5409c43.6665,0 80.163,-29.0374 84.9041,-67.5409c0.368016,-2.9944 2.18656,-5.39279 4.61726,-6.85229c-3.65144,-14.5016 -4.1523,-34.3763 -4.16846,-48.1455c-22.1743,22.975 -52.2278,37.1894 -85.3529,37.1894Z" style="fill:#ffb980;fill-rule:nonzero;"/><path d="M339.499,310.694c-21.9876,21.9015 -51.2602,35.4391 -83.5002,35.4391c-33.1251,0 -63.1786,-14.2144 -85.3529,-37.1876c-0.0161568,13.7674 -0.517018,33.6421 -4.16666,48.1401c2.3948,1.46309 4.25283,3.86687 4.61546,6.85588c2.09141,17.0203 10.405,32.1754 22.7865,43.8065c57.0982,-8.04251 121.905,-64.4244 145.618,-97.054Z" style="fill:#f8ab6b;fill-rule:nonzero;"/><path d="M429.087,367.326c-0.378788,-0.105917 -0.759371,-0.190291 -1.14893,-0.245943l-75.7001,-11.3582c-0.463162,-0.0700129 -1.45411,-0.105917 -1.92625,-0.105917c-4.7878,0 -8.82521,3.57066 -9.40865,8.32615c-4.74113,38.5035 -41.2394,67.5409 -84.9041,67.5409c-43.6755,0 -80.1719,-29.0338 -84.9041,-67.5409c-0.592417,-4.89372 -5.00143,-8.57568 -9.64921,-8.32076c-0.556513,-0.0323136 -1.10225,0.0143616 -1.68569,0.102327l-75.7001,11.3582c-0.389559,0.0556513 -0.768347,0.138231 -1.14893,0.245943c-35.7838,10.0208 -54.5095,45.2301 -54.5095,74.833l0,36.7388c0,15.6416 13.929,28.366 31.0516,28.366l393.094,0c17.1244,0 31.0516,-12.7244 31.0516,-28.366l0,-36.7388c0,-29.6029 -18.7258,-64.814 -54.5113,-74.8348Z" style="fill:#00abff;fill-rule:nonzero;"/><path d="M341.348,109.05l-161.216,0c-26.1435,0 -47.4167,21.2731 -47.4167,47.4167l0,56.8989c0,73.2083 55.3066,132.766 123.282,132.766c67.9753,0 123.282,-59.5576 123.282,-132.766l0,-66.383c0.0035904,-20.9141 -17.0095,-37.9326 -37.9308,-37.9326Z" style="fill:#fdc88e;fill-rule:nonzero;"/><path d="M322.382,4.73452l-123.282,0c-17.8371,0 -32.8307,12.3725 -36.8681,28.9817c-32.6458,4.14871 -57.9653,32.0982 -57.9653,65.8498l0,47.4167c0,24.4399 10.3745,47.239 28.4504,63.4424l0,-53.9602c0,-26.1435 21.2731,-47.4167 47.4167,-47.4167l161.216,0c20.9213,0 37.9326,17.0167 37.9326,37.9326l0,63.4335c18.0795,-16.1999 28.4504,-38.999 28.4504,-63.4335l0,-56.8989c-0.0017952,-47.0576 -38.2863,-85.3475 -85.3511,-85.3475Z" style="fill:#7e5c62;fill-rule:nonzero;"/></g></g></svg>