<?xml version="1.0" standalone="no"?>
<!DOCTYPE svg PUBLIC "-//W3C//DTD SVG 1.1//EN" "http://www.w3.org/Graphics/SVG/1.1/DTD/svg11.dtd">
<svg width="100%" height="100%" viewBox="0 0 50 50" version="1.1" xmlns="http://www.w3.org/2000/svg" xmlns:xlink="http://www.w3.org/1999/xlink" xml:space="preserve" style="fill-rule:evenodd;clip-rule:evenodd;stroke-linejoin:round;stroke-miterlimit:1.41421;">
    <g id="Layer1">
        <path d="M25,2.13163e-14C11.2151,2.13163e-14 7.69409e-32,11.2151 1.71513e-31,25C2.66077e-31,38.7839 11.2151,50 25,50C38.7839,50 50,38.7839 50,25C50,11.2151 38.786,2.13163e-14 25,2.13163e-14ZM36.1526,19.2782C36.1637,19.5259 36.1697,19.7756 36.1697,20.0254C36.1697,27.6293 30.3835,36.3943 19.7968,36.3943C16.5472,36.3943 13.5221,35.4447 10.9764,33.8113C11.4265,33.8647 11.8847,33.8919 12.3489,33.8919C15.0457,33.8919 17.526,32.9715 19.4957,31.4287C16.9782,31.3824 14.8524,29.7188 14.1203,27.4319C14.4707,27.4984 14.8322,27.5356 15.2018,27.5356C15.7265,27.5356 16.236,27.4672 16.7184,27.3353C14.086,26.8076 12.1032,24.4824 12.1032,21.693C12.1032,21.6688 12.1032,21.6436 12.1042,21.6205C12.8796,22.0505 13.7668,22.3103 14.7094,22.3395C13.1666,21.3093 12.1506,19.547 12.1506,17.5512C12.1506,16.4958 12.4335,15.5069 12.929,14.657C15.7657,18.1392 20.0073,20.4292 24.7885,20.6709C24.6898,20.2489 24.6405,19.8109 24.6405,19.3587C24.6405,16.1816 27.2164,13.6047 30.3935,13.6047C32.0491,13.6047 33.5425,14.3036 34.5938,15.4213C35.9059,15.1635 37.1345,14.6862 38.2492,14.0246C37.8162,15.369 36.9069,16.4958 35.7156,17.2088C36.8807,17.0698 37.9924,16.7617 39.0206,16.3035C38.2532,17.4555 37.2775,18.4695 36.1526,19.2782Z" style="fill:rgb(153,153,153);fill-rule:nonzero;"/>
    </g>
</svg>
