<?xml version="1.0" standalone="no"?><!DOCTYPE svg PUBLIC "-//W3C//DTD SVG 1.1//EN" "http://www.w3.org/Graphics/SVG/1.1/DTD/svg11.dtd"><svg width="100%" height="100%" viewBox="0 0 50 50" version="1.1" xmlns="http://www.w3.org/2000/svg" xmlns:xlink="http://www.w3.org/1999/xlink" xml:space="preserve" style="fill-rule:evenodd;clip-rule:evenodd;stroke-linejoin:round;stroke-miterlimit:1.41421;"><g id="Layer1"><path id="Settings" d="M49.8435,22.224c-0.0790674,-0.702845 -0.898577,-1.231 -1.60721,-1.231c-2.29109,0 -4.32415,-1.34523 -5.17677,-3.42567c-0.871043,-2.13086 -0.309386,-4.61593 1.3981,-6.18217c0.537472,-0.491322 0.602772,-1.31379 0.151995,-1.88511c-1.17262,-1.48903 -2.50541,-2.83408 -3.96062,-3.99978c-0.569843,-0.457277 -1.40591,-0.393653 -1.90004,0.15348c-1.49019,1.65033 -4.16694,2.26369 -6.23535,1.40067c-2.15249,-0.905438 -3.50985,-3.08653 -3.37701,-5.42779c0.0437196,-0.735401 -0.493752,-1.37481 -1.22694,-1.4602c-1.86748,-0.215988 -3.75133,-0.222685 -5.62439,-0.0148829c-0.724815,0.0799956 -1.26229,0.704333 -1.23792,1.43043c0.0814859,2.3182 -1.29224,4.46115 -3.42334,5.33403c-2.04366,0.834745 -4.70162,0.226592 -6.18883,-1.40904c-0.49152,-0.538761 -1.31401,-0.60499 -1.88664,-0.158689c-1.49837,1.17556 -2.86112,2.52172 -4.04453,3.99848c-0.461567,0.574108 -0.393662,1.40625 0.149205,1.90017c1.74004,1.57573 2.30188,4.08238 1.39791,6.2378c-0.863043,2.05496 -2.99693,3.37935 -5.43983,3.37935c-0.79272,-0.025487 -1.35735,0.506577 -1.44405,1.22728c-0.2199,1.87822 -0.222505,3.79198 -0.0107904,5.68545c0.0785092,0.705822 0.922949,1.22933 1.63939,1.22933c2.17705,-0.0556248 4.26722,1.29221 5.14403,3.42586c0.87402,2.13086 0.312177,4.61444 -1.39791,6.18199c-0.534867,0.491322 -0.602772,1.31249 -0.151995,1.8838c1.16164,1.47955 2.49462,2.82589 3.95504,4.00127c0.57282,0.461556 1.40628,0.396443 1.90283,-0.150689c1.49577,-1.65442 4.17234,-2.26667 6.23255,-1.40197c2.15789,0.902648 3.51524,3.08355 3.38241,5.42612c-0.0433475,0.735773 0.496729,1.3763 1.22694,1.46038c0.95532,0.111436 1.91641,0.167061 2.8801,0.167061c0.914763,0 1.82971,-0.0502298 2.74447,-0.151992c0.725001,-0.0799956 1.2621,-0.704333 1.23773,-1.43174c-0.0839044,-2.3169 1.29224,-4.45985 3.42055,-5.33124c2.05743,-0.840326 4.70423,-0.22529 6.19163,1.40867c0.494311,0.537645 1.31103,0.602571 1.88683,0.157759c1.49558,-1.17277 2.85554,-2.51781 4.04453,-3.99866c0.461381,-0.572806 0.396267,-1.40625 -0.149391,-1.89999c-1.74004,-1.57573 -2.30467,-4.08275 -1.4007,-6.23668c0.849835,-2.02761 2.90447,-3.38902 5.11445,-3.38902l0.3092,0.00799956c0.716815,0.0582294 1.37633,-0.493926 1.46321,-1.22561c0.220272,-1.8799 0.222877,-3.79198 0.0111625,-5.68545ZM25.0396,33.3918c-4.59856,0 -8.3391,-3.74045 -8.3391,-8.33889c0,-4.59826 3.74054,-8.33889 8.3391,-8.33889c4.59837,0 8.33891,3.74063 8.33891,8.33889c0,4.59844 -3.74054,8.33889 -8.33891,8.33889Z" style="fill:#999;"/></g></svg>