<?xml version="1.0" standalone="no"?><!DOCTYPE svg PUBLIC "-//W3C//DTD SVG 1.1//EN" "http://www.w3.org/Graphics/SVG/1.1/DTD/svg11.dtd"><svg width="100%" height="100%" viewBox="0 0 100 40" version="1.1" xmlns="http://www.w3.org/2000/svg" xmlns:xlink="http://www.w3.org/1999/xlink" xml:space="preserve" style="fill-rule:evenodd;clip-rule:evenodd;stroke-linejoin:round;stroke-miterlimit:1.41421;"><g id="Layer1"><text x="1.08713e-12px" y="31.7846px" style="font-family:Carrington;font-size:24.1504px;fill:#c7a06a;">Listamotor</text><g><g><path d="M41.3135,9.83914c0,0.695992 -0.566217,1.26167 -1.26167,1.26167l-9.51562,0c-0.695451,0 -1.26167,-0.565673 -1.26167,-1.26167l0,-1.20582c0,-0.695451 0.566216,-1.26167 1.26167,-1.26167l9.51562,0c0.695451,0 1.26167,0.566215 1.26167,1.26167l0,1.20582ZM39.4292,12.909l-0.93913,0c-0.141281,0 -0.256278,-0.114446 -0.256278,-0.255724l0,-0.630838l1.45168,0l0,0.630838c0,0.141278 -0.114995,0.255724 -0.256276,0.255724ZM32.3542,12.6533c0,0.141278 -0.114449,0.255724 -0.255729,0.255724l-0.939679,0c-0.141281,0 -0.256276,-0.114446 -0.256276,-0.255724l0,-0.630838l1.45168,0l0,0.630838ZM28.8277,6.04647l0,-0.363061c0,-0.185637 0.151137,-0.336771 0.336772,-0.336771l1.00156,0l-0.242039,1.0366l-0.75952,0c-0.185635,0 -0.336772,-0.151134 -0.336772,-0.336771ZM31.1325,5.25848c0.303369,-1.29945 1.4473,-2.20737 2.78235,-2.20737l1.14886,0l0,0.567308l-0.665333,0c-0.254633,0 -0.461077,0.206442 -0.461077,0.460532c0,0.254631 0.206445,0.461084 0.461077,0.461084l1.79174,0c0.254634,0 0.46053,-0.206452 0.46053,-0.461084c0,-0.25409 -0.205896,-0.460532 -0.46053,-0.460532l-0.66588,0l0,-0.567308l1.14886,0c1.33505,0 2.47898,0.907919 2.78235,2.20737l0.246966,1.05905l-8.81688,0l0.246967,-1.05905ZM41.7603,5.68341l0,0.363061c0,0.185637 -0.151137,0.336771 -0.336774,0.336771l-0.75952,0l-0.242038,-1.0366l1.00156,0c0.185637,0 0.336774,0.151134 0.336774,0.336771ZM41.296,6.84378l0.127591,0c0.439722,0 0.797852,-0.358128 0.797852,-0.797303l0,-0.363061c0,-0.439716 -0.358131,-0.797303 -0.797852,-0.797303l-1.11655,0c-0.456697,-1.63074 -1.92536,-2.75661 -3.63386,-2.75661l-2.75825,0c-1.70796,0 -3.17717,1.1264 -3.63386,2.75661l-1.11655,0c-0.439722,0 -0.797303,0.357587 -0.797303,0.797303l0,0.363061c0,0.439175 0.357582,0.797303 0.797303,0.797303l0.127591,0c-0.566217,0.394816 -0.939131,1.04865 -0.939131,1.78955l0,1.20582c0,1.09245 0.80935,1.99216 1.85855,2.15041l0,0.663696c0,0.521856 0.424936,0.946793 0.947345,0.946793l0.939679,0c0.521861,0 0.946798,-0.424937 0.946798,-0.946793l0,-0.630838l4.49797,0l0,0.630838c0,0.521856 0.424389,0.946793 0.946799,0.946793l0.93913,0c0.522408,0 0.947345,-0.424937 0.947345,-0.946793l0,-0.663696c1.0492,-0.158253 1.85855,-1.05796 1.85855,-2.15041l0,-1.20582c0,-0.740902 -0.372915,-1.39473 -0.939133,-1.78955Z" style="fill:#333;fill-rule:nonzero;"/><path d="M38.1369,8.02823l-5.45791,0c-0.127042,0 -0.22999,0.103497 -0.22999,0.230547c0,0.127591 0.102948,0.230537 0.22999,0.230537l5.45791,0c0.127042,0 0.229993,-0.102945 0.229993,-0.230537c0,-0.12705 -0.10295,-0.230547 -0.229993,-0.230547Z" style="fill:#333;fill-rule:nonzero;"/><path d="M38.1369,9.00569l-5.45791,0c-0.127042,0 -0.22999,0.103497 -0.22999,0.230537c0,0.12705 0.102948,0.230547 0.22999,0.230547l5.45791,0c0.127042,0 0.229993,-0.103497 0.229993,-0.230547c0,-0.12704 -0.10295,-0.230537 -0.229993,-0.230537Z" style="fill:#333;fill-rule:nonzero;"/><path d="M38.1369,9.98371l-5.45791,0c-0.127042,0 -0.22999,0.102945 -0.22999,0.229985c0,0.127591 0.102948,0.230537 0.22999,0.230537l5.45791,0c0.127042,0 0.229993,-0.102945 0.229993,-0.230537c0,-0.12704 -0.10295,-0.229985 -0.229993,-0.229985Z" style="fill:#333;fill-rule:nonzero;"/><path d="M30.8138,9.90211c-0.367438,0 -0.665879,-0.298438 -0.665879,-0.665882c0,-0.366882 0.298441,-0.66533 0.665879,-0.66533c0.366892,0 0.66588,0.298449 0.66588,0.66533c0,0.367443 -0.298989,0.665882 -0.66588,0.665882ZM30.8138,8.11037c-0.620976,0 -1.12641,0.504891 -1.12641,1.12586c0,0.620981 0.505434,1.12641 1.12641,1.12641c0.620976,0 1.12641,-0.505432 1.12641,-1.12641c0,-0.620971 -0.505434,-1.12586 -1.12641,-1.12586Z" style="fill:#333;fill-rule:nonzero;"/><path d="M39.7742,9.90211c-0.366892,0 -0.665333,-0.298438 -0.665333,-0.665882c0,-0.366882 0.298441,-0.66533 0.665333,-0.66533c0.366889,0 0.665879,0.298449 0.665879,0.66533c0,0.367443 -0.29899,0.665882 -0.665879,0.665882ZM39.7742,8.11037c-0.620979,0 -1.12641,0.504891 -1.12641,1.12586c0,0.620981 0.505432,1.12641 1.12641,1.12641c0.620976,0 1.12641,-0.505432 1.12641,-1.12641c0,-0.620971 -0.505432,-1.12586 -1.12641,-1.12586Z" style="fill:#333;fill-rule:nonzero;"/></g><path d="M71.1062,7.28847c0,0.221118 -0.174544,0.398711 -0.392622,0.411336c-0.0295975,-0.156265 -0.0944553,-0.299474 -0.185432,-0.423092l-0.153216,-1.1609l0.315143,0c0.229826,0 0.416126,0.186735 0.416126,0.416134l0,0.756519ZM70.1603,12.0287l-6.16097,0c-0.278145,0 -0.504492,-0.226347 -0.504492,-0.504492c0,-0.278145 0.226347,-0.504492 0.504492,-0.504492l6.16097,0c0.278145,0 0.504492,0.226347 0.504492,0.504492c0,0.278145 -0.226347,0.504492 -0.504492,0.504492ZM63.053,7.2889l0,-0.756519c0,-0.229392 0.186735,-0.416565 0.416565,-0.416565l0.314709,0l-0.15322,1.1609c-0.0909763,0.123618 -0.15583,0.266828 -0.184997,0.423531c-0.218508,-0.0126249 -0.393056,-0.190218 -0.393056,-0.411344ZM64.2818,6.86624l0.190218,-1.44732c0.0213284,-0.157572 0.156699,-0.276838 0.315578,-0.276838l4.58395,0c0.158879,0 0.294249,0.119267 0.315578,0.276408l0.190656,1.44775c-0.0618092,-0.0113177 -0.124926,-0.0191525 -0.189349,-0.0191525l-5.21728,0c-0.0652922,0 -0.12797,0.00783475 -0.189345,0.0191525ZM66.1858,8.61564l0,-0.197622c0,-0.0282944 0.0226355,-0.0509219 0.0509298,-0.0509219l1.68541,0c0.02786,0 0.0509298,0.0226275 0.0509298,0.0509219l0,0.197622l-1.78727,0ZM66.1858,9.22329l0,-0.213292l1.78727,0l0,0.213292l-1.78727,0ZM67.973,10.2249l0,0.203281l-1.78727,0l0,-0.203281l1.78727,0ZM66.1858,9.83051l0,-0.213292l1.78727,0l0,0.213292l-1.78727,0ZM68.8484,10.0999l1.09604,0l0,0.328207l-1.57746,0l0,-2.01013c0,-0.245499 -0.199794,-0.444859 -0.444859,-0.444859l-1.68541,0c-0.245499,0 -0.445293,0.19936 -0.445293,0.444859l0,2.01013l-1.57616,0l0,-0.328207l1.10387,0c0.0378706,0 0.0683368,-0.0426567 0.0683368,-0.0948937l0,-0.963275c0,-0.052229 -0.0304662,-0.0944553 -0.0683368,-0.0944553l-1.10387,0l0,-1.05642c0,-0.141033 0.114481,-0.25551 0.255944,-0.25551l5.21728,0c0.141033,0 0.255944,0.114477 0.255944,0.25551l0,1.05642l-1.09604,0c-0.0374362,0 -0.0683408,0.0422263 -0.0683408,0.0944553l0,0.963275c0,0.052237 0.0309046,0.0948937 0.0683408,0.0948937ZM70.4689,2.90431l0,2.81758l-0.14582,0l-0.0500571,-0.380866c-0.0596333,-0.450087 -0.447035,-0.790042 -0.90147,-0.790042l-4.58395,0c-0.453997,0 -0.841833,0.339955 -0.901466,0.790473l-0.0500571,0.380436l-0.137985,0l-0.0126249,-2.80408l6.78343,-0.0134936ZM71.2572,5.95563l0,-3.05133c0,-0.427014 -0.347355,-0.774803 -0.774799,-0.774803l-6.79692,0c-0.427444,0 -0.774799,0.347789 -0.774799,0.774803l0,3.04436c-0.154527,0.147561 -0.252031,0.353879 -0.252031,0.583709l0,0.756519c0,0.432234 0.341262,0.783507 0.767837,0.806142l0,2.49939c-0.312529,0.192832 -0.522772,0.53627 -0.522772,0.929761c0,0.59242 0.473149,1.07297 1.06078,1.09212l0,0.258993c0,0.400018 0.324285,0.724742 0.724746,0.724742c0.400457,0 0.724742,-0.324724 0.724742,-0.724742l0,-0.25551l3.33121,0l0,0.25551c0,0.400018 0.32472,0.724742 0.724742,0.724742c0.400461,0 0.724746,-0.324724 0.724746,-0.724742l0,-0.258993c0.588499,-0.0187141 1.06165,-0.499702 1.06165,-1.09212c0,-0.393929 -0.210677,-0.736929 -0.523645,-0.930199l0,-2.49938c0.42701,-0.0226355 0.767837,-0.373908 0.767837,-0.806142l0,-0.756519c0,-0.225478 -0.094021,-0.42919 -0.243323,-0.576312Z" style="fill:#333;fill-rule:nonzero;"/><path d="M54.3123,9.39601c0,0.450388 -0.341844,0.819265 -0.779338,0.87c-0.191303,-0.647926 -0.71821,-1.15196 -1.38402,-1.29876l0,-0.725277l1.47135,0c0.166764,0 0.301924,-0.135159 0.301924,-0.301922l0,-0.538137c0.234133,0.158447 0.390084,0.424187 0.390084,0.727358l0,1.26674ZM53.0139,10.8432l-2.53515,0l0,-0.0507366c0,-0.699078 0.568911,-1.26757 1.26799,-1.26757c0.699078,0 1.26716,0.568496 1.26716,1.26757l0,0.0507366ZM52.4966,12.246c0,0.413791 -0.33644,0.750231 -0.750231,0.750231c-0.413376,0 -0.750231,-0.33644 -0.750231,-0.750231l0,-0.799304l1.50046,0l0,0.799304ZM49.9598,10.2664c-0.437496,-0.0511525 -0.778925,-0.420029 -0.778925,-0.870417l0,-1.26674c0,-0.303171 0.155536,-0.568911 0.389671,-0.727358l0,0.538137c0,0.166763 0.135157,0.301922 0.301922,0.301922l1.47135,0l0,0.725277c-0.665809,0.147219 -1.1923,0.650838 -1.38402,1.29918ZM50.1744,6.88706c0,-0.459537 0.373868,-0.833406 0.833406,-0.833406l1.47717,0c0.459539,0 0.833407,0.373868 0.833407,0.833406l0,0.751061l-3.14398,0l0,-0.751061ZM50.9953,4.19222c-0.11977,0 -0.217085,-0.0973136 -0.217085,-0.217085l0,-0.521501c0,-0.119772 0.0973155,-0.217085 0.217085,-0.217085l1.50254,0c0.119355,0 0.217083,0.0973136 0.217083,0.217085l0,0.521501c0,0.119772 -0.0977286,0.217085 -0.217083,0.217085l-1.50254,0ZM53.8652,6.5082c-0.167598,-0.608003 -0.719456,-1.05798 -1.38028,-1.05798l-0.335606,0l-0.000415008,-0.654164l0.348917,0c0.40381,0 0.738584,-0.294019 0.806371,-0.679116l1.27215,0c0.222075,0 0.402565,-0.180488 0.402565,-0.402563c0,-0.222075 -0.18049,-0.402563 -0.402565,-0.402563l-1.02637,0l0.257842,-0.377194l0.673291,0c0.222079,0 0.40215,-0.180488 0.40215,-0.402563c0,-0.22249 -0.180071,-0.402561 -0.40215,-0.402561l-0.591367,0c-0.222075,0 -0.402146,0.180071 -0.402146,0.402561c0,0.0432503 0.0116431,0.0831747 0.0245349,0.122267l-0.289443,0.42294c-0.136823,-0.262831 -0.408801,-0.444566 -0.724862,-0.444566l-1.50254,0c-0.316477,0 -0.588041,0.181735 -0.725279,0.444566l-0.28903,-0.42294c0.0124769,-0.0390926 0.0245368,-0.079017 0.0245368,-0.122267c0,-0.22249 -0.180488,-0.402561 -0.402563,-0.402561l-0.590952,0c-0.22249,0 -0.402563,0.180071 -0.402563,0.402561c0,0.222075 0.180073,0.402563 0.402563,0.402563l0.672879,0l0.258255,0.377194l-1.02637,0c-0.22249,0 -0.402563,0.180488 -0.402563,0.402563c0,0.222075 0.180073,0.402563 0.402563,0.402563l1.27173,0c0.0677871,0.385097 0.402561,0.679116 0.806788,0.679116l0.3485,0l0.000415008,0.654164l-0.336438,0c-0.660403,0 -1.21268,0.449973 -1.38028,1.05839c-0.71904,0.191301 -1.25177,0.842138 -1.25177,1.62065l0,1.26674c0,0.865426 0.658322,1.57241 1.49963,1.66681l0,0.0819269c0,0.166764 0.135159,0.301922 0.301507,0.301922l0.215421,0l0,0.799304c0,0.746487 0.607586,1.35407 1.35407,1.35407c0.746488,0 1.35407,-0.607587 1.35407,-1.35407l0,-0.799304l0.215419,0c0.166764,0 0.301924,-0.135157 0.301924,-0.301922l0,-0.0819269c0.840889,-0.0944018 1.49921,-0.801382 1.49921,-1.66681l0,-1.26674c0,-0.77851 -0.532729,-1.42935 -1.25177,-1.62106Z" style="fill:#333;fill-rule:nonzero;"/></g></g></svg>