<?xml version="1.0" standalone="no"?><!DOCTYPE svg PUBLIC "-//W3C//DTD SVG 1.1//EN" "http://www.w3.org/Graphics/SVG/1.1/DTD/svg11.dtd"><svg width="100%" height="100%" viewBox="0 0 100 40" version="1.1" xmlns="http://www.w3.org/2000/svg" xmlns:xlink="http://www.w3.org/1999/xlink" xml:space="preserve" style="fill-rule:evenodd;clip-rule:evenodd;stroke-linejoin:round;stroke-miterlimit:1.41421;"><g id="Layer1"><g><path d="M18.4992,18.7917c0,1.94813 -0.837214,3.42936 -2.51164,4.44367c-1.80323,1.09482 -4.49197,1.60198 -8.06623,1.52148c-1.17532,2.91415 -2.76925,4.80593 -4.78178,5.67534c0.788913,0.0322005 1.73883,0.426657 2.84975,1.18337c0.982116,0.692311 1.97228,1.38462 2.9705,2.07693c1.19142,0.724512 2.27819,1.08677 3.2603,1.08677c0.982116,0 1.77505,-0.354206 2.37881,-1.06262c0.60376,-0.708412 0.90564,-1.64223 0.90564,-2.80145c0,-0.483008 -0.205278,-0.909665 -0.615835,-1.27997c-0.410557,-0.370306 -0.865389,-0.555459 -1.3645,-0.555459c-0.466908,0 -0.853314,0.161003 -1.15922,0.483008c-0.241504,0.257604 -0.362256,0.523259 -0.362256,0.796963c0,0.177103 0.0563509,0.265654 0.169053,0.265654c0.0805013,0 0.189178,-0.0241504 0.32603,-0.0724512c0.136852,-0.0483008 0.253579,-0.0724512 0.350181,-0.0724512c0.370306,0 0.555459,0.281755 0.555459,0.845264c-3.55271e-15,0.692311 -0.346156,1.03847 -1.03847,1.03847c-0.499108,0 -0.91369,-0.197228 -1.24375,-0.591685c-0.330055,-0.394457 -0.495083,-0.857339 -0.495083,-1.38865c0,-0.740612 0.269679,-1.38462 0.809038,-1.93203c0.539359,-0.547409 1.18739,-0.821114 1.94411,-0.821114c0.982116,0 1.81531,0.358231 2.49957,1.07469c0.684261,0.716462 1.02639,1.56575 1.02639,2.54787c0,1.61003 -0.58766,2.93025 -1.76298,3.96067c-1.11092,0.966016 -2.47139,1.44902 -4.08142,1.44902c-1.38462,0 -2.66459,-0.466908 -3.83991,-1.40072c-0.901615,-0.853314 -1.81128,-1.70663 -2.729,-2.55994c-1.03042,-0.933815 -2.04473,-1.40072 -3.04295,-1.40072c-0.112702,0 -0.249554,0.0402507 -0.410557,0.120752c-0.161003,0.0805013 -0.297855,0.120752 -0.410557,0.120752c-0.209303,0 -0.390431,-0.0684261 -0.543384,-0.205278c-0.152953,-0.136852 -0.213329,-0.29383 -0.181128,-0.470933c0.0483008,-0.241504 0.515209,-0.539359 1.40072,-0.893565c1.04652,-0.418607 1.83543,-0.970041 2.36674,-1.6543c0.531309,-0.684261 1.07067,-1.87971 1.61808,-3.58633c-1.78713,0.0966016 -2.68069,0.57961 -2.68069,1.44902c0,0.161003 0.104652,0.313955 0.313955,0.458858c0.209303,0.144902 0.313955,0.362256 0.313955,0.652061c0,0.241504 -0.0925765,0.438732 -0.27773,0.591685c-0.185153,0.152953 -0.398482,0.229429 -0.639986,0.229429c-0.370306,0 -0.680236,-0.148927 -0.92979,-0.446782c-0.249554,-0.297855 -0.374331,-0.631935 -0.374331,-1.00224c0,-0.933815 0.466908,-1.71468 1.40072,-2.34259c0.821114,-0.547409 1.94008,-0.933815 3.35691,-1.15922c0.853314,-2.62434 1.90788,-4.61273 3.1637,-5.96515c1.57783,-1.70663 3.47766,-2.55994 5.69949,-2.55994c1.17532,0 2.12524,0.410557 2.84975,1.23167c0.676211,0.788913 1.01432,1.76298 1.01432,2.9222ZM16.8811,18.2362c0,-0.61181 -0.197228,-1.14714 -0.591685,-1.606c-0.394457,-0.458858 -0.90564,-0.688286 -1.53355,-0.688286c-1.77103,3.55271e-15 -3.1476,0.724512 -4.12972,2.17354c-0.547409,0.788913 -1.23972,2.41504 -2.07693,4.87838c2.01253,-0.0805013 3.86406,-0.555459 5.55459,-1.42487c1.85153,-0.949916 2.7773,-2.06083 2.7773,-3.33276Z" style="fill:#c7a06a;fill-rule:nonzero;"/><path d="M24.4644,16.7389c0,0.59571 -0.128802,1.11092 -0.386406,1.54563c-0.289805,0.499108 -0.684261,0.748662 -1.18337,0.748662c-0.289805,0 -0.531309,-0.124777 -0.724512,-0.374331c-0.193203,-0.249554 -0.289805,-0.527284 -0.289805,-0.833189c0,-0.57961 0.161003,-1.09884 0.483008,-1.5577c0.322005,-0.458858 0.692311,-0.688286 1.11092,-0.688286c0.273705,0 0.507158,0.104652 0.700362,0.313955c0.193203,0.209303 0.289805,0.491058 0.289805,0.845264ZM23.4742,20.6996c0,0.483008 -0.664136,1.93606 -1.99241,4.35915c-1.32827,2.42309 -1.99241,4.07739 -1.99241,4.96291c0,0.466908 0.144902,0.700362 0.434707,0.700362c0.515209,0 0.901615,-0.269679 1.15922,-0.809038c0.257604,-0.539359 0.507158,-0.809038 0.748662,-0.809038c0.273705,0 0.410557,0.241504 0.410557,0.724512c0,0.644011 -0.27773,1.17934 -0.833189,1.606c-0.555459,0.426657 -1.18739,0.639986 -1.89581,0.639986c-0.57961,0 -1.03444,-0.225404 -1.3645,-0.676211c-0.330055,-0.450807 -0.495083,-1.00627 -0.495083,-1.66638c0,-1.04652 0.426657,-2.50762 1.27997,-4.3833c0.853314,-1.87568 1.27997,-2.92622 1.27997,-3.15163c0,-0.128802 -0.161003,-0.221379 -0.483008,-0.27773c-0.322005,-0.0563509 -0.483008,-0.189178 -0.483008,-0.398482c0,-0.483008 0.523259,-0.724512 1.56978,-0.724512c0.933815,0 1.54965,-0.0764763 1.84751,-0.229429c0.297855,-0.152953 0.454833,-0.229429 0.470933,-0.229429c0.225404,0 0.338106,0.120752 0.338106,0.362256Z" style="fill:#c7a06a;fill-rule:nonzero;"/><path d="M30.8884,22.1486c0,0.354206 -0.0925765,0.664136 -0.27773,0.92979c-0.185153,0.265654 -0.430682,0.398482 -0.736587,0.398482c-0.273705,0 -0.515209,-0.0885515 -0.724512,-0.265654c-0.209303,-0.177103 -0.313955,-0.394457 -0.313955,-0.652061c0,-0.257604 0.104652,-0.483008 0.313955,-0.676211c-0.193203,-0.128802 -0.458858,-0.193203 -0.796963,-0.193203c-0.386406,0 -0.740612,0.112702 -1.06262,0.338106c-0.370306,0.241504 -0.555459,0.547409 -0.555459,0.917715c0,0.515209 0.205278,1.05054 0.615835,1.606c0.410557,0.555459 0.817089,1.09079 1.2196,1.606c0.418607,0.692311 0.62791,1.42487 0.62791,2.19769c0,1.03042 -0.418607,1.89983 -1.25582,2.60824c-0.837214,0.708412 -1.78713,1.06262 -2.84975,1.06262c-0.756713,0 -1.40072,-0.217354 -1.93203,-0.652061c-0.57961,-0.450807 -0.869414,-1.02237 -0.869414,-1.71468c0,-0.386406 0.132827,-0.732562 0.398482,-1.03847c0.265654,-0.305905 0.583635,-0.458858 0.953941,-0.458858c0.322005,0 0.59571,0.116727 0.821114,0.350181c0.225404,0.233454 0.338106,0.511183 0.338106,0.833189c0,0.563509 -0.289805,0.901615 -0.869414,1.01432c-0.0161003,0.161003 0.0724512,0.30993 0.265654,0.446782c0.193203,0.136852 0.394457,0.205278 0.60376,0.205278c0.57961,0 1.08274,-0.209303 1.5094,-0.62791c0.426657,-0.418607 0.639986,-0.909665 0.639986,-1.47317c0,-0.708412 -0.382381,-1.56978 -1.14714,-2.58409c-0.764763,-1.01432 -1.14714,-1.89178 -1.14714,-2.63239c0,-0.901615 0.398482,-1.66235 1.19544,-2.28221c0.796963,-0.61986 1.7187,-0.90564 2.76522,-0.857339c0.61181,0.0161003 1.12702,0.152953 1.54563,0.410557c0.483008,0.289805 0.724512,0.684261 0.724512,1.18337Z" style="fill:#c7a06a;fill-rule:nonzero;"/><path d="M38.5923,20.7479l-0.483008,1.20752l-2.29429,0c-0.515209,1.11092 -1.47317,3.1637 -2.8739,6.15835c-0.338106,0.724512 -0.507158,1.32827 -0.507158,1.81128c0,0.466908 0.144902,0.700362 0.434707,0.700362c0.322005,0 0.639986,-0.233454 0.953941,-0.700362c0.313955,-0.466908 0.615835,-0.700362 0.90564,-0.700362c0.273705,0 0.410557,0.193203 0.410557,0.57961c0,0.547409 -0.313955,1.06262 -0.941866,1.54563c-0.62791,0.483008 -1.32022,0.724512 -2.07693,0.724512c-0.57961,0 -1.03444,-0.225404 -1.3645,-0.676211c-0.330055,-0.450807 -0.495083,-1.00627 -0.495083,-1.66638c0,-0.708412 0.185153,-1.46512 0.555459,-2.27014l2.51164,-5.50629l-1.98033,0l0.483008,-1.20752l2.05278,0l0.845264,-1.85958c0.161003,-0.338106 0.370306,-0.664136 0.62791,-0.978091c0.257604,-0.313955 0.466908,-0.474958 0.62791,-0.483008c0.161003,-0.00805013 0.426657,-0.0442757 0.796963,-0.108677c0.0805013,-0.0161003 0.201253,-0.0644011 0.362256,-0.144902c0.161003,-0.0805013 0.297855,-0.120752 0.410557,-0.120752c0.161003,0 0.257604,0.0644011 0.289805,0.193203c-0.0161003,-0.0483008 -0.0241504,0.0885515 -0.0241504,0.410557c0,0.0322005 -0.249554,0.571559 -0.748662,1.61808c-0.225404,0.483008 -0.458858,0.974066 -0.700362,1.47317l2.22184,0Z" style="fill:#c7a06a;fill-rule:nonzero;"/><path d="M48.1559,22.535c0.0644011,0.61181 -0.185153,1.00627 -0.748662,1.18337l-2.12524,5.24064c-0.161003,0.402507 -0.241504,0.748662 -0.241504,1.03847c0,0.354206 0.152953,0.531309 0.458858,0.531309c0.305905,0 0.559484,-0.245529 0.760738,-0.736587c0.201253,-0.491058 0.350181,-0.736587 0.446782,-0.736587c0.289805,0 0.434707,0.241504 0.434707,0.724512c0,0.434707 -0.205278,0.877465 -0.615835,1.32827c-0.410557,0.450807 -0.88149,0.676211 -1.4128,0.676211c-0.547409,0 -1.01432,-0.128802 -1.40072,-0.386406c-0.434707,-0.305905 -0.652061,-0.716462 -0.652061,-1.23167c0,-0.273705 0.128802,-0.756713 0.386406,-1.44902l1.54563,-4.20217c0.0644011,-0.193203 0.0241504,-0.289805 -0.120752,-0.289805c-0.112702,0 -0.201253,0.0885515 -0.265654,0.265654l-1.52148,4.17802c-0.322005,0.885515 -0.780863,1.65028 -1.37657,2.29429c-0.644011,0.676211 -1.26387,1.01432 -1.85958,1.01432c-0.917715,0 -1.61808,-0.313955 -2.10108,-0.941866c-0.434707,-0.547409 -0.652061,-1.26387 -0.652061,-2.14939c0,-2.15744 0.780863,-4.06532 2.34259,-5.72364c1.62613,-1.72273 3.54206,-2.58409 5.7478,-2.58409c0.740612,0 1.40877,0.185153 2.00448,0.555459c0.59571,0.370306 0.917715,0.837214 0.966016,1.40072ZM46.731,22.1727c-0.273705,-0.322005 -0.740612,-0.483008 -1.40072,-0.483008c-1.81933,0 -3.2925,0.901615 -4.41952,2.70484c-0.966016,1.54563 -1.44902,3.2925 -1.44902,5.24064c0,0.209303 0.0684261,0.418607 0.205278,0.62791c0.136852,0.209303 0.27773,0.313955 0.422632,0.313955c0.305905,0 0.664136,-0.209303 1.07469,-0.62791c0.410557,-0.418607 0.720487,-0.885515 0.92979,-1.40072l2.02863,-5.11988l2.14939,0c-0.112702,-0.144902 -0.169053,-0.297855 -0.169053,-0.458858c0,-0.354206 0.209303,-0.61986 0.62791,-0.796963Z" style="fill:#c7a06a;fill-rule:nonzero;"/><path d="M63.105,23.0663c0,0.450807 -0.515209,1.69053 -1.54563,3.71916c-1.03042,2.02863 -1.54563,3.2603 -1.54563,3.69501c0,0.289805 0.0805013,0.434707 0.241504,0.434707c0.322005,0 0.692311,-0.281755 1.11092,-0.845264c0.418607,-0.563509 0.684261,-0.845264 0.796963,-0.845264c0.273705,0 0.410557,0.169053 0.410557,0.507158c-7.10543e-15,0.354206 -0.273705,0.821114 -0.821114,1.40072c-0.59571,0.61181 -1.15922,0.917715 -1.69053,0.917715c-0.644011,0 -1.09482,-0.128802 -1.35242,-0.386406c-0.305905,-0.289805 -0.458858,-0.845264 -0.458858,-1.66638c0,-0.853314 0.503133,-2.28221 1.5094,-4.2867c1.00627,-2.00448 1.5094,-3.08723 1.5094,-3.24823c0,-0.273705 -0.104652,-0.410557 -0.313955,-0.410557c-0.62791,0 -1.52148,1.15922 -2.68069,3.47766c-0.338106,0.692311 -1.14312,2.50359 -2.41504,5.43384c-0.144902,0.322005 -0.225404,0.499108 -0.241504,0.531309c-0.0966016,0.144902 -0.257604,0.225404 -0.483008,0.241504l-1.25582,0.0483008c-0.322005,0.0161003 -0.59571,0.100627 -0.821114,0.253579c-0.225404,0.152953 -0.434707,0.229429 -0.62791,0.229429c-0.193203,0 -0.289805,-0.193203 -0.289805,-0.57961c0,-0.660111 0.656086,-2.31441 1.96826,-4.96291c1.31217,-2.64849 1.96826,-4.06934 1.96826,-4.26255c0,-0.273705 -0.104652,-0.410557 -0.313955,-0.410557c-1.15922,0 -2.8578,2.9705 -5.09573,8.9115c-0.0483008,0.144902 -0.104652,0.273705 -0.169053,0.386406c-0.144902,0.241504 -0.322005,0.370306 -0.531309,0.386406l-1.01432,0.0483008c-0.322005,0.0161003 -0.599735,0.100627 -0.833189,0.253579c-0.233454,0.152953 -0.446782,0.229429 -0.639986,0.229429c-0.209303,0 -0.313955,-0.120752 -0.313955,-0.362256c0,-0.0805013 0.0161003,-0.152953 0.0483008,-0.217354c0.853314,-1.48122 1.59393,-3.05905 2.22184,-4.73348c0.724512,-1.94813 1.08677,-3.53401 1.08677,-4.75763c0,-0.128802 -0.161003,-0.221379 -0.483008,-0.27773c-0.322005,-0.0563509 -0.483008,-0.189178 -0.483008,-0.398482c0,-0.483008 0.523259,-0.724512 1.56978,-0.724512c0.933815,0 1.54965,-0.0764763 1.84751,-0.229429c0.297855,-0.152953 0.454833,-0.229429 0.470933,-0.229429c0.225404,0 0.338106,0.120752 0.338106,0.362256c0,0.144902 -0.523259,1.36852 -1.56978,3.67086c-1.20752,2.62434 -2.00448,4.51612 -2.39089,5.67534c-0.0322005,0.0966016 -0.0161003,0.152953 0.0483008,0.169053c0.0805013,0 0.136852,-0.0402507 0.169053,-0.120752c1.61003,-3.88016 2.89,-6.45621 3.83991,-7.72813c0.724512,-0.982116 1.53758,-1.47317 2.43919,-1.47317c1.07872,0 1.61808,0.652061 1.61808,1.95618c0,0.193203 -0.402507,1.21557 -1.20752,3.0671c-0.933815,2.14134 -1.52148,3.59036 -1.76298,4.34707c0,0.0483008 0.0483008,0.0724512 0.144902,0.0724512c0.0322005,0 0.394457,-0.813063 1.08677,-2.43919c0.821114,-1.94813 1.59393,-3.46961 2.31844,-4.56443c1.06262,-1.62613 2.06083,-2.43919 2.99465,-2.43919c1.06262,0 1.59393,0.724512 1.59393,2.17354Z" style="fill:#c7a06a;fill-rule:nonzero;"/><path d="M71.8474,23.8633c0,2.06083 -0.672186,3.91639 -2.01656,5.56667c-1.34437,1.65028 -2.88597,2.47542 -4.6248,2.47542c-2.06083,0 -3.09125,-1.10287 -3.09125,-3.3086c0,-1.89983 0.756713,-3.71916 2.27014,-5.45799c1.48122,-1.69053 2.97855,-2.53579 4.49197,-2.53579c0.966016,0 1.71468,0.322005 2.24599,0.966016c0.483008,0.57961 0.724512,1.34437 0.724512,2.29429ZM69.6498,22.7524c0,-0.62791 -0.209303,-0.941866 -0.62791,-0.941866c-0.949916,0 -2.00448,0.92174 -3.1637,2.76522c-1.15922,1.84348 -1.73883,3.52193 -1.73883,5.03536c0,0.740612 0.313955,1.11092 0.941866,1.11092c1.23972,0 2.33454,-0.877465 3.28445,-2.63239c0.869414,-1.65833 1.30412,-3.43741 1.30412,-5.33724Z" style="fill:#c7a06a;fill-rule:nonzero;"/><path d="M80.9038,20.7479l-0.483008,1.20752l-2.29429,0c-0.515209,1.11092 -1.47317,3.1637 -2.8739,6.15835c-0.338106,0.724512 -0.507158,1.32827 -0.507158,1.81128c0,0.466908 0.144902,0.700362 0.434707,0.700362c0.322005,0 0.639986,-0.233454 0.953941,-0.700362c0.313955,-0.466908 0.615835,-0.700362 0.90564,-0.700362c0.273705,0 0.410557,0.193203 0.410557,0.57961c0,0.547409 -0.313955,1.06262 -0.941866,1.54563c-0.62791,0.483008 -1.32022,0.724512 -2.07693,0.724512c-0.57961,0 -1.03444,-0.225404 -1.3645,-0.676211c-0.330055,-0.450807 -0.495083,-1.00627 -0.495083,-1.66638c0,-0.708412 0.185153,-1.46512 0.555459,-2.27014l2.51164,-5.50629l-1.98033,0l0.483008,-1.20752l2.05278,0l0.845264,-1.85958c0.161003,-0.338106 0.370306,-0.664136 0.62791,-0.978091c0.257604,-0.313955 0.466908,-0.474958 0.62791,-0.483008c0.161003,-0.00805013 0.426657,-0.0442757 0.796963,-0.108677c0.0805013,-0.0161003 0.201253,-0.0644011 0.362256,-0.144902c0.161003,-0.0805013 0.297855,-0.120752 0.410557,-0.120752c0.161003,0 0.257604,0.0644011 0.289805,0.193203c-0.0161003,-0.0483008 -0.0241504,0.0885515 -0.0241504,0.410557c0,0.0322005 -0.249554,0.571559 -0.748662,1.61808c-0.225404,0.483008 -0.458858,0.974066 -0.700362,1.47317l2.22184,0Z" style="fill:#c7a06a;fill-rule:nonzero;"/><path d="M88.4146,23.8633c0,2.06083 -0.672186,3.91639 -2.01656,5.56667c-1.34437,1.65028 -2.88597,2.47542 -4.6248,2.47542c-2.06083,0 -3.09125,-1.10287 -3.09125,-3.3086c0,-1.89983 0.756713,-3.71916 2.27014,-5.45799c1.48122,-1.69053 2.97855,-2.53579 4.49197,-2.53579c0.966016,0 1.71468,0.322005 2.24599,0.966016c0.483008,0.57961 0.724512,1.34437 0.724512,2.29429ZM86.2169,22.7524c0,-0.62791 -0.209303,-0.941866 -0.62791,-0.941866c-0.949916,0 -2.00448,0.92174 -3.1637,2.76522c-1.15922,1.84348 -1.73883,3.52193 -1.73883,5.03536c0,0.740612 0.313955,1.11092 0.941866,1.11092c1.23972,0 2.33454,-0.877465 3.28445,-2.63239c0.869414,-1.65833 1.30412,-3.43741 1.30412,-5.33724Z" style="fill:#c7a06a;fill-rule:nonzero;"/><path d="M99.0649,22.4625c0,0.837214 -0.297855,1.31217 -0.893565,1.42487c-0.273705,0.0483008 -0.527284,-0.0120752 -0.760738,-0.181128c-0.233454,-0.169053 -0.350181,-0.382381 -0.350181,-0.639986c0,-0.322005 0.128802,-0.563509 0.386406,-0.724512c-0.0322005,-0.225404 -0.185153,-0.338106 -0.458858,-0.338106c-0.644011,0 -1.48927,0.998217 -2.53579,2.99465c-0.853314,1.57783 -1.73078,3.56621 -2.63239,5.96515c-0.0483008,0.144902 -0.104652,0.273705 -0.169053,0.386406c-0.144902,0.241504 -0.322005,0.370306 -0.531309,0.386406l-1.01432,0.0483008c-0.322005,0.0161003 -0.599735,0.100627 -0.833189,0.253579c-0.233454,0.152953 -0.446782,0.229429 -0.639986,0.229429c-0.128802,0 -0.225404,-0.0644011 -0.289805,-0.193203c-0.0483008,-0.128802 -0.0402507,-0.257604 0.0241504,-0.386406c0.821114,-1.48122 1.53758,-3.02685 2.14939,-4.63688c0.772813,-2.04473 1.15922,-3.66281 1.15922,-4.85423c0,-0.128802 -0.161003,-0.221379 -0.483008,-0.27773c-0.322005,-0.0563509 -0.483008,-0.189178 -0.483008,-0.398482c0,-0.483008 0.523259,-0.724512 1.56978,-0.724512c0.933815,0 1.54965,-0.0764763 1.84751,-0.229429c0.297855,-0.152953 0.454833,-0.229429 0.470933,-0.229429c0.225404,0 0.338106,0.120752 0.338106,0.362256c0,0.161003 -0.523259,1.39267 -1.56978,3.69501c-1.20752,2.60824 -2.00448,4.49197 -2.39089,5.65119c-0.0322005,0.0966016 -0.0161003,0.152953 0.0483008,0.169053c0.0805013,0 0.136852,-0.0402507 0.169053,-0.120752c1.62613,-3.92847 2.89,-6.52866 3.79161,-7.80058c0.724512,-1.03042 1.52953,-1.55368 2.41504,-1.56978c0.370306,-0.0161003 0.716462,0.0966016 1.03847,0.338106c0.418607,0.322005 0.62791,0.788913 0.62791,1.40072Z" style="fill:#c7a06a;fill-rule:nonzero;"/></g><g><g><path d="M41.3135,9.83914c0,0.695992 -0.566217,1.26167 -1.26167,1.26167l-9.51562,0c-0.695451,0 -1.26167,-0.565673 -1.26167,-1.26167l0,-1.20582c0,-0.695451 0.566216,-1.26167 1.26167,-1.26167l9.51562,0c0.695451,0 1.26167,0.566215 1.26167,1.26167l0,1.20582ZM39.4292,12.909l-0.93913,0c-0.141281,0 -0.256278,-0.114446 -0.256278,-0.255724l0,-0.630838l1.45168,0l0,0.630838c0,0.141278 -0.114995,0.255724 -0.256276,0.255724l4e-06,0ZM32.3542,12.6533c0,0.141278 -0.114449,0.255724 -0.255729,0.255724l-0.939679,0c-0.141281,0 -0.256276,-0.114446 -0.256276,-0.255724l0,-0.630838l1.45168,0l0,0.630838l4e-06,0ZM28.8277,6.04647l0,-0.363061c0,-0.185637 0.151137,-0.336771 0.336772,-0.336771l1.00156,0l-0.242039,1.0366l-0.75952,0c-0.185635,0 -0.336772,-0.151134 -0.336772,-0.336771l-1e-06,3e-06ZM31.1325,5.25848c0.303369,-1.29945 1.4473,-2.20737 2.78235,-2.20737l1.14886,0l0,0.567308l-0.665333,0c-0.254633,0 -0.461077,0.206442 -0.461077,0.460532c0,0.254631 0.206445,0.461084 0.461077,0.461084l1.79174,0c0.254634,0 0.46053,-0.206452 0.46053,-0.461084c0,-0.25409 -0.205896,-0.460532 -0.46053,-0.460532l-0.66588,0l0,-0.567308l1.14886,0c1.33505,0 2.47898,0.907919 2.78235,2.20737l0.246966,1.05905l-8.81688,0l0.246967,-1.05905l-3.55271e-15,0ZM41.7603,5.68341l0,0.363061c0,0.185637 -0.151137,0.336771 -0.336774,0.336771l-0.75952,0l-0.242038,-1.0366l1.00156,0c0.185637,0 0.336774,0.151134 0.336774,0.336771l-2e-06,-3e-06ZM41.296,6.84378l0.127591,0c0.439722,0 0.797852,-0.358128 0.797852,-0.797303l0,-0.363061c0,-0.439716 -0.358131,-0.797303 -0.797852,-0.797303l-1.11655,0c-0.456697,-1.63074 -1.92536,-2.75661 -3.63386,-2.75661l-2.75825,0c-1.70796,0 -3.17717,1.1264 -3.63386,2.75661l-1.11655,0c-0.439722,0 -0.797303,0.357587 -0.797303,0.797303l0,0.363061c0,0.439175 0.357582,0.797303 0.797303,0.797303l0.127591,0c-0.566217,0.394816 -0.939131,1.04865 -0.939131,1.78955l0,1.20582c0,1.09245 0.80935,1.99216 1.85855,2.15041l0,0.663696c0,0.521856 0.424936,0.946793 0.947345,0.946793l0.939679,0c0.521861,0 0.946798,-0.424937 0.946798,-0.946793l0,-0.630838l4.49797,0l0,0.630838c0,0.521856 0.424389,0.946793 0.946799,0.946793l0.93913,0c0.522408,0 0.947345,-0.424937 0.947345,-0.946793l0,-0.663696c1.0492,-0.158253 1.85855,-1.05796 1.85855,-2.15041l0,-1.20582c0,-0.740902 -0.372915,-1.39473 -0.939133,-1.78955l-1.4e-05,2.66454e-15Z" style="fill:#333;fill-rule:nonzero;"/><path d="M38.1369,8.02823l-5.45791,0c-0.127042,0 -0.22999,0.103497 -0.22999,0.230547c0,0.127591 0.102948,0.230537 0.22999,0.230537l5.45791,0c0.127042,0 0.229993,-0.102945 0.229993,-0.230537c0,-0.12705 -0.10295,-0.230547 -0.229993,-0.230547Z" style="fill:#333;fill-rule:nonzero;"/><path d="M38.1369,9.00569l-5.45791,0c-0.127042,0 -0.22999,0.103497 -0.22999,0.230537c0,0.12705 0.102948,0.230547 0.22999,0.230547l5.45791,0c0.127042,0 0.229993,-0.103497 0.229993,-0.230547c0,-0.12704 -0.10295,-0.230537 -0.229993,-0.230537Z" style="fill:#333;fill-rule:nonzero;"/><path d="M38.1369,9.98371l-5.45791,0c-0.127042,0 -0.22999,0.102945 -0.22999,0.229985c0,0.127591 0.102948,0.230537 0.22999,0.230537l5.45791,0c0.127042,0 0.229993,-0.102945 0.229993,-0.230537c0,-0.12704 -0.10295,-0.229985 -0.229993,-0.229985Z" style="fill:#333;fill-rule:nonzero;"/><path d="M30.8138,9.90211c-0.367438,0 -0.665879,-0.298438 -0.665879,-0.665882c0,-0.366882 0.298441,-0.66533 0.665879,-0.66533c0.366892,0 0.66588,0.298449 0.66588,0.66533c0,0.367443 -0.298989,0.665882 -0.66588,0.665882ZM30.8138,8.11037c-0.620976,0 -1.12641,0.504891 -1.12641,1.12586c0,0.620981 0.505434,1.12641 1.12641,1.12641c0.620976,0 1.12641,-0.505432 1.12641,-1.12641c0,-0.620971 -0.505434,-1.12586 -1.12641,-1.12586Z" style="fill:#333;fill-rule:nonzero;"/><path d="M39.7742,9.90211c-0.366892,0 -0.665333,-0.298438 -0.665333,-0.665882c0,-0.366882 0.298441,-0.66533 0.665333,-0.66533c0.366889,0 0.665879,0.298449 0.665879,0.66533c0,0.367443 -0.29899,0.665882 -0.665879,0.665882ZM39.7742,8.11037c-0.620979,0 -1.12641,0.504891 -1.12641,1.12586c0,0.620981 0.505432,1.12641 1.12641,1.12641c0.620976,0 1.12641,-0.505432 1.12641,-1.12641c0,-0.620971 -0.505432,-1.12586 -1.12641,-1.12586Z" style="fill:#333;fill-rule:nonzero;"/></g><path d="M71.1062,7.28847c0,0.221118 -0.174544,0.398711 -0.392622,0.411336c-0.0295975,-0.156265 -0.0944553,-0.299474 -0.185432,-0.423092l-0.153216,-1.1609l0.315143,0c0.229826,0 0.416126,0.186735 0.416126,0.416134l1e-06,0.756522ZM70.1603,12.0287l-6.16097,0c-0.278145,0 -0.504492,-0.226347 -0.504492,-0.504492c0,-0.278145 0.226347,-0.504492 0.504492,-0.504492l6.16097,0c0.278145,0 0.504492,0.226347 0.504492,0.504492c0,0.278145 -0.226347,0.504492 -0.504492,0.504492ZM63.053,7.2889l0,-0.756519c0,-0.229392 0.186735,-0.416565 0.416565,-0.416565l0.314709,0l-0.15322,1.1609c-0.0909763,0.123618 -0.15583,0.266828 -0.184997,0.423531c-0.218508,-0.0126249 -0.393056,-0.190218 -0.393056,-0.411344l-1e-06,-3e-06ZM64.2818,6.86624l0.190218,-1.44732c0.0213284,-0.157572 0.156699,-0.276838 0.315578,-0.276838l4.58395,0c0.158879,0 0.294249,0.119267 0.315578,0.276408l0.190656,1.44775c-0.0618092,-0.0113177 -0.124926,-0.0191525 -0.189349,-0.0191525l-5.21728,0c-0.0652922,0 -0.12797,0.00783475 -0.189345,0.0191525l-6e-06,0ZM66.1858,8.61564l0,-0.197622c0,-0.0282944 0.0226355,-0.0509219 0.0509298,-0.0509219l1.68541,0c0.02786,0 0.0509298,0.0226275 0.0509298,0.0509219l0,0.197622l-1.78727,0l4e-07,0ZM66.1858,9.22329l0,-0.213292l1.78727,0l0,0.213292l-1.78727,0ZM67.973,10.2249l0,0.203281l-1.78727,0l0,-0.203281l1.78727,0ZM66.1858,9.83051l0,-0.213292l1.78727,0l0,0.213292l-1.78727,0ZM68.8484,10.0999l1.09604,0l0,0.328207l-1.57746,0l0,-2.01013c0,-0.245499 -0.199794,-0.444859 -0.444859,-0.444859l-1.68541,0c-0.245499,0 -0.445293,0.19936 -0.445293,0.444859l0,2.01013l-1.57616,0l0,-0.328207l1.10387,0c0.0378706,0 0.0683368,-0.0426567 0.0683368,-0.0948937l0,-0.963275c0,-0.052229 -0.0304662,-0.0944553 -0.0683368,-0.0944553l-1.10387,0l0,-1.05642c0,-0.141033 0.114481,-0.25551 0.255944,-0.25551l5.21728,0c0.141033,0 0.255944,0.114477 0.255944,0.25551l0,1.05642l-1.09604,0c-0.0374362,0 -0.0683408,0.0422263 -0.0683408,0.0944553l0,0.963275c0,0.052237 0.0309046,0.0948937 0.0683408,0.0948937l1.4e-05,0ZM70.4689,2.90431l0,2.81758l-0.14582,0l-0.0500571,-0.380866c-0.0596333,-0.450087 -0.447035,-0.790042 -0.90147,-0.790042l-4.58395,0c-0.453997,0 -0.841833,0.339955 -0.901466,0.790473l-0.0500571,0.380436l-0.137985,0l-0.0126249,-2.80408l6.78343,-0.0134936l1e-07,-7.4e-06ZM71.2572,5.95563l0,-3.05133c0,-0.427014 -0.347355,-0.774803 -0.774799,-0.774803l-6.79692,0c-0.427444,0 -0.774799,0.347789 -0.774799,0.774803l0,3.04436c-0.154527,0.147561 -0.252031,0.353879 -0.252031,0.583709l0,0.756519c0,0.432234 0.341262,0.783507 0.767837,0.806142l0,2.49939c-0.312529,0.192832 -0.522772,0.53627 -0.522772,0.929761c0,0.59242 0.473149,1.07297 1.06078,1.09212l0,0.258993c0,0.400018 0.324285,0.724742 0.724746,0.724742c0.400457,0 0.724742,-0.324724 0.724742,-0.724742l0,-0.25551l3.33121,0l0,0.25551c0,0.400018 0.32472,0.724742 0.724742,0.724742c0.400461,0 0.724746,-0.324724 0.724746,-0.724742l0,-0.258993c0.588499,-0.0187141 1.06165,-0.499702 1.06165,-1.09212c0,-0.393929 -0.210677,-0.736929 -0.523645,-0.930199l0,-2.49938c0.42701,-0.0226355 0.767837,-0.373908 0.767837,-0.806142l0,-0.756519c0,-0.225478 -0.094021,-0.42919 -0.243323,-0.576312l-1e-06,1e-06Z" style="fill:#333;fill-rule:nonzero;"/><path d="M54.3123,9.39601c0,0.450388 -0.341844,0.819265 -0.779338,0.87c-0.191303,-0.647926 -0.71821,-1.15196 -1.38402,-1.29876l0,-0.725277l1.47135,0c0.166764,0 0.301924,-0.135159 0.301924,-0.301922l0,-0.538137c0.234133,0.158447 0.390084,0.424187 0.390084,0.727358l0,1.26674l0,-2e-06ZM53.0139,10.8432l-2.53515,0l0,-0.0507366c0,-0.699078 0.568911,-1.26757 1.26799,-1.26757c0.699078,0 1.26716,0.568496 1.26716,1.26757l7.10543e-15,0.0507366ZM52.4966,12.246c0,0.413791 -0.33644,0.750231 -0.750231,0.750231c-0.413376,0 -0.750231,-0.33644 -0.750231,-0.750231l0,-0.799304l1.50046,0l2e-06,0.799304ZM49.9598,10.2664c-0.437496,-0.0511525 -0.778925,-0.420029 -0.778925,-0.870417l0,-1.26674c0,-0.303171 0.155536,-0.568911 0.389671,-0.727358l0,0.538137c0,0.166763 0.135157,0.301922 0.301922,0.301922l1.47135,0l0,0.725277c-0.665809,0.147219 -1.1923,0.650838 -1.38402,1.29918l2e-06,-1e-06ZM50.1744,6.88706c0,-0.459537 0.373868,-0.833406 0.833406,-0.833406l1.47717,0c0.459539,0 0.833407,0.373868 0.833407,0.833406l0,0.751061l-3.14398,0l0,-0.751061l-3e-06,0ZM50.9953,4.19222c-0.11977,0 -0.217085,-0.0973136 -0.217085,-0.217085l0,-0.521501c0,-0.119772 0.0973155,-0.217085 0.217085,-0.217085l1.50254,0c0.119355,0 0.217083,0.0973136 0.217083,0.217085l0,0.521501c0,0.119772 -0.0977286,0.217085 -0.217083,0.217085l-1.50254,0ZM53.8652,6.5082c-0.167598,-0.608003 -0.719456,-1.05798 -1.38028,-1.05798l-0.335606,0l-0.000415008,-0.654164l0.348917,0c0.40381,0 0.738584,-0.294019 0.806371,-0.679116l1.27215,0c0.222075,0 0.402565,-0.180488 0.402565,-0.402563c0,-0.222075 -0.18049,-0.402563 -0.402565,-0.402563l-1.02637,0l0.257842,-0.377194l0.673291,0c0.222079,0 0.40215,-0.180488 0.40215,-0.402563c0,-0.22249 -0.180071,-0.402561 -0.40215,-0.402561l-0.591367,0c-0.222075,0 -0.402146,0.180071 -0.402146,0.402561c0,0.0432503 0.0116431,0.0831747 0.0245349,0.122267l-0.289443,0.42294c-0.136823,-0.262831 -0.408801,-0.444566 -0.724862,-0.444566l-1.50254,0c-0.316477,0 -0.588041,0.181735 -0.725279,0.444566l-0.28903,-0.42294c0.0124769,-0.0390926 0.0245368,-0.079017 0.0245368,-0.122267c0,-0.22249 -0.180488,-0.402561 -0.402563,-0.402561l-0.590952,0c-0.22249,0 -0.402563,0.180071 -0.402563,0.402561c0,0.222075 0.180073,0.402563 0.402563,0.402563l0.672879,0l0.258255,0.377194l-1.02637,0c-0.22249,0 -0.402563,0.180488 -0.402563,0.402563c0,0.222075 0.180073,0.402563 0.402563,0.402563l1.27173,0c0.0677871,0.385097 0.402561,0.679116 0.806788,0.679116l0.3485,0l0.000415008,0.654164l-0.336438,0c-0.660403,0 -1.21268,0.449973 -1.38028,1.05839c-0.71904,0.191301 -1.25177,0.842138 -1.25177,1.62065l0,1.26674c0,0.865426 0.658322,1.57241 1.49963,1.66681l0,0.0819269c0,0.166764 0.135159,0.301922 0.301507,0.301922l0.215421,0l0,0.799304c0,0.746487 0.607586,1.35407 1.35407,1.35407c0.746488,0 1.35407,-0.607587 1.35407,-1.35407l0,-0.799304l0.215419,0c0.166764,0 0.301924,-0.135157 0.301924,-0.301922l0,-0.0819269c0.840889,-0.0944018 1.49921,-0.801382 1.49921,-1.66681l0,-1.26674c0,-0.77851 -0.532729,-1.42935 -1.25177,-1.62106l2.03e-05,-1.77636e-15Z" style="fill:#333;fill-rule:nonzero;"/></g></g></svg>