<?xml version="1.0" standalone="no"?><!DOCTYPE svg PUBLIC "-//W3C//DTD SVG 1.1//EN" "http://www.w3.org/Graphics/SVG/1.1/DTD/svg11.dtd"><svg width="100%" height="100%" viewBox="0 0 32 32" version="1.1" xmlns="http://www.w3.org/2000/svg" xmlns:xlink="http://www.w3.org/1999/xlink" xml:space="preserve" style="fill-rule:evenodd;clip-rule:evenodd;stroke-linejoin:round;stroke-miterlimit:1.41421;"><path d="M31.008,27.231l-7.58,-6.447c-0.784,-0.705 -1.622,-1.029 -2.299,-0.998c1.789,-2.096 2.87,-4.815 2.87,-7.787c0,-6.627 -5.373,-12 -12,-12c-6.627,0 -12,5.373 -12,12c0,6.627 5.373,12 12,12c2.972,0 5.691,-1.081 7.787,-2.87c-0.031,0.677 0.293,1.515 0.998,2.299l6.447,7.58c1.104,1.226 2.907,1.33 4.007,0.23c1.1,-1.1 0.997,-2.903 -0.23,-4.007ZM12,20c-4.418,0 -8,-3.582 -8,-8c0,-4.418 3.582,-8 8,-8c4.418,0 8,3.582 8,8c0,4.418 -3.582,8 -8,8Z" style="fill:#fff;fill-rule:nonzero;"/></svg>